<svg xmlns="http://www.w3.org/2000/svg" viewBox="0 0 318.63 126.62"><defs><style>.cls-1{fill:#fff;fill-rule:evenodd;}</style></defs><g id="Слой_2" data-name="Слой 2"><g id="Слой_1-2" data-name="Слой 1"><path class="cls-1" d="M19.88,110.8v-.47c0-3.08-1.64-4.66-4.55-4.66-2.66,0-4.54,1.45-4.54,4a4.54,4.54,0,0,0,2.3,4l2.6,1.7c1.08.71,1.59,1.3,1.59,2.3a1.62,1.62,0,0,1-1.72,1.72c-1.1,0-2.13-.55-2.13-2.7V116H10.65v.59c0,3.15,1.65,5,4.91,5,3.07,0,4.73-1.61,4.73-4.32,0-2.29-1-3.24-2.62-4.32l-3-2a1.84,1.84,0,0,1-1-1.74,1.37,1.37,0,0,1,1.55-1.3c1.15,0,1.83.75,1.83,2.62v.17Zm44-2.51h3.62V106H57.31v2.34h3.62v13h2.91v-13Zm44-2.34v11.23c0,2.81,1.48,4.41,4.87,4.41s4.85-1.64,4.85-4.41V106h-2.92v10.81c0,1.72-.49,2.49-1.93,2.49s-2-.81-2-2.49V106Zm49.79,15.36H163c3.92,0,4.6-4.21,4.6-7.66v-.77c0-5.61-2.2-6.93-4.77-6.93h-5.15v15.36Zm2.92-13.09h1.92c1.59,0,2.1,1.62,2.1,5.39,0,3-.3,5.42-2.19,5.42h-1.83V108.22ZM210.43,106h-2.92v15.36h2.92V106Zm40,5v5.57c0,3.88,2.09,5.17,5,5.17s4.94-1.25,4.94-5.17v-5.57c0-3.92-2-5.26-4.94-5.26s-5,1.38-5,5.26Zm5-2.92c1.25,0,2,1,2,2.62v6.24c0,1.61-.71,2.46-2,2.46s-2-.87-2-2.47v-6.27c0-1.64.64-2.58,2-2.58Zm52,2.79v-.47c0-3.08-1.64-4.66-4.56-4.66-2.65,0-4.53,1.45-4.53,4a4.54,4.54,0,0,0,2.3,4l2.6,1.7c1.08.71,1.59,1.3,1.59,2.3a1.62,1.62,0,0,1-1.72,1.72c-1.11,0-2.13-.55-2.13-2.7V116h-2.79v.59c0,3.15,1.66,5,4.92,5,3.06,0,4.72-1.61,4.72-4.32,0-2.29-1-3.24-2.62-4.32l-3-2a1.83,1.83,0,0,1-1-1.74,1.37,1.37,0,0,1,1.55-1.3c1.15,0,1.83.75,1.83,2.62v.17Z"/><path class="cls-1" d="M318.63,101.44V0H0V126.62H318.63V101.44Zm-317.4,0H317.4v24H1.23v-24ZM271.82,10.79h36v16H292.58V43.13h15.24l0,15.19H292.58V74.67h15.24v16h-36V10.79Zm-17.66,0V74.67h12.63v16h-33.4V10.79Zm-49,28.57c0,3.41-.37,5.49-1.1,6.21s-2.63,1.13-5.72,1.23V24.46q4.4.15,5.59,1.38c.81.82,1.21,2.85,1.21,6.06v7.46Zm0,30.18q0,4.83-1.22,6.06c-.8.83-2.67,1.28-5.6,1.38V54.64q4.63.15,5.71,1.23t1.09,6.21v7.46Zm18.19-21c1.72-2.52,2.56-6.38,2.56-11.58V29.56q0-8.11-1.84-12a10,10,0,0,0-5.9-5.32c-2.69-1-8.22-1.44-16.57-1.44h-24V90.65h24q12.51,0,16.56-1.44a10,10,0,0,0,5.9-5.32q1.85-3.9,1.84-12V64.5q0-7.8-2.56-11.58a9.66,9.66,0,0,0-2.22-2.2,9.63,9.63,0,0,0,2.22-2.19Zm-74-9.17c0,3.41-.37,5.49-1.1,6.21s-2.62,1.13-5.72,1.23V24.46q4.39.15,5.6,1.38c.81.82,1.21,2.85,1.21,6.06v7.46Zm0,30.18q0,4.83-1.22,6.06c-.8.83-2.67,1.28-5.6,1.38V54.64c3.1.1,5,.51,5.72,1.23s1.09,2.8,1.09,6.21v7.46Zm18.19-21c1.72-2.52,2.56-6.38,2.56-11.58V29.56c0-5.41-.63-9.41-1.85-12a10,10,0,0,0-5.9-5.32c-2.7-1-8.22-1.44-16.57-1.44h-24V90.65h24q12.53,0,16.57-1.44a10,10,0,0,0,5.9-5.32q1.83-3.9,1.84-12V64.5q0-7.8-2.57-11.58a9.66,9.66,0,0,0-2.22-2.2,9.63,9.63,0,0,0,2.22-2.19ZM113.78,10.79V64.16a93.47,93.47,0,0,1-.59,12.75,17.33,17.33,0,0,1-3.51,7.55A18.08,18.08,0,0,1,102,90.32a28.77,28.77,0,0,1-11.23,2A31.71,31.71,0,0,1,78.17,90,19,19,0,0,1,70,83.79a17.06,17.06,0,0,1-3.21-8q-.48-4.23-.49-17.74V10.79H87.05V70.67c0,3.48.18,5.71.56,6.68a2.22,2.22,0,0,0,2.29,1.46,2.42,2.42,0,0,0,2.55-1.6c.38-1.07.56-3.6.56-7.58V10.79ZM38.37,39.36c0,3.41-.37,5.49-1.09,6.21s-2.63,1.13-5.73,1.23V24.46q4.38.15,5.6,1.38c.8.82,1.21,2.85,1.21,6.06v7.46Zm0,30.18c0,3.22-.41,5.24-1.21,6.06S34.48,76.88,31.55,77V54.64q4.64.15,5.72,1.23c.72.73,1.09,2.8,1.09,6.21v7.46Zm18.19-21Q59.14,44.75,59.13,37V29.56q0-8.11-1.85-12a10,10,0,0,0-5.89-5.32c-2.7-1-8.23-1.44-16.58-1.44h-24V90.65h24q12.52,0,16.57-1.44a9.94,9.94,0,0,0,5.89-5.32q1.84-3.9,1.85-12V64.5q0-7.8-2.57-11.58a9.61,9.61,0,0,0-2.21-2.2,9.58,9.58,0,0,0,2.21-2.19Z"/></g></g></svg>