<svg  xmlns="http://www.w3.org/2000/svg" viewBox="0 0 915.8 143.5"><defs><style>.cls-1{fill:#fff;}</style></defs><g id="Слой_2" data-name="Слой 2"><g id="Слой_1-2" data-name="Слой 1"><path class="cls-1" d="M240.2,45.3a18.27,18.27,0,0,0-7.4-6.6,19.75,19.75,0,0,0-9.7-2.5,20.83,20.83,0,0,0-12.7,4.4,21.82,21.82,0,0,0-5.9,6.7,19.36,19.36,0,0,0-7.7-8.1,21.41,21.41,0,0,0-11-3,19,19,0,0,0-15.6,7.5,19.74,19.74,0,0,0-3.8,7.5,45.14,45.14,0,0,0-1.1,10.9v42.8h4.8V64a62.89,62.89,0,0,1,.6-10.4,14.08,14.08,0,0,1,2.5-5.9,15,15,0,0,1,5.6-5,14.78,14.78,0,0,1,14.5,0,14.32,14.32,0,0,1,5.5,4.8q3.3,5.1,3.3,15.6v41.8h4.8V63.4c0-6.4.9-11.2,2.8-14.7a13.71,13.71,0,0,1,5.5-5.7,14.4,14.4,0,0,1,7.8-2.2,15.12,15.12,0,0,1,8.4,2.6A14.28,14.28,0,0,1,237,50c1.3,3,1.9,7.4,1.9,13.4v41.5h4.8V63.3a60.69,60.69,0,0,0-.7-11A18.41,18.41,0,0,0,240.2,45.3Z"/><path class="cls-1" d="M323.1,72.5c.7-.4,1-1.4,1-3.1a25.05,25.05,0,0,0-1-6.3,37.49,37.49,0,0,0-10.4-17.7,33.59,33.59,0,0,0-23.6-9.1A34.88,34.88,0,0,0,271.5,41a34.94,34.94,0,0,0-17.4,30.2,33.87,33.87,0,0,0,9.6,24c6.7,7.3,15.1,10.9,25.3,10.9a33.83,33.83,0,0,0,25.3-10.6c4-4.1,7-9.7,9-16.6h-5c-2.4,8.3-7.1,14.5-14.1,18.5a29.69,29.69,0,0,1-15,4.1,28.61,28.61,0,0,1-14.8-4,30.7,30.7,0,0,1-10.8-10.4A28.9,28.9,0,0,1,259.2,73h58.9C320.7,73.1,322.4,72.9,323.1,72.5ZM268.8,48.9a29.6,29.6,0,0,1,35.1-4A30,30,0,0,1,316.2,58a28.25,28.25,0,0,1,2.9,10.5h-60A30,30,0,0,1,268.8,48.9Z"/><path class="cls-1" d="M397.6,45.2a34.11,34.11,0,0,0-23.7-9.1A34.26,34.26,0,0,0,344.1,53,34.09,34.09,0,0,0,339,71a34.49,34.49,0,0,0,8.3,22.6A32.74,32.74,0,0,0,373.6,106a35,35,0,0,0,22.1-7.7,37.07,37.07,0,0,0,8.3-9.5V105c0,6.9-.7,12.4-2.2,16.5a24.76,24.76,0,0,1-7.3,10.8,25.21,25.21,0,0,1-17.4,6.5,26.81,26.81,0,0,1-14.7-4.2,25.06,25.06,0,0,1-8.4-9,28.7,28.7,0,0,1-3.6-13.9h-4.8a31.41,31.41,0,0,0,31.5,31.8,31.86,31.86,0,0,0,14.4-3.5,30.8,30.8,0,0,0,11.4-9.7c4-5.7,6.1-13.6,6.1-23.7V75.9c0-7.5-.9-13.6-2.6-18.2A32.23,32.23,0,0,0,397.6,45.2Zm-1.2,46.1a28.27,28.27,0,0,1-22.3,10.1A28.84,28.84,0,0,1,353,92.7,29.61,29.61,0,0,1,343.9,71a29,29,0,0,1,8-20.4,29.69,29.69,0,0,1,42.1-2,29.55,29.55,0,0,1,10.1,23C404.2,78.8,401.6,85.4,396.4,91.3Z"/><path class="cls-1" d="M480,44.5a34.21,34.21,0,0,0-22.8-8.4,33.66,33.66,0,0,0-22.8,8.4c-8,6.9-12,15.7-12,26.5a34.82,34.82,0,0,0,8.8,23.5A33.12,33.12,0,0,0,457,105.9c13,0,23.1-5.7,30.2-17.2v16H492V77.1a87.24,87.24,0,0,0-.8-13.4A32.16,32.16,0,0,0,480,44.5Zm-.6,47.1a30,30,0,0,1-52.1-20.4A29.78,29.78,0,0,1,477.6,49c6.4,5.9,9.5,13.4,9.5,22.6A27.92,27.92,0,0,1,479.4,91.6Z"/><rect class="cls-1" x="512" width="4.8" height="104.8"/><rect class="cls-1" x="538.8" y="37.7" width="4.8" height="67.1"/><path class="cls-1" d="M541.2,13.1a4.74,4.74,0,0,0-2.8,1.2,3.78,3.78,0,0,0-1.2,2.8,3.42,3.42,0,0,0,1.2,2.7,4.11,4.11,0,0,0,2.8,1.1,3.69,3.69,0,0,0,2.7-1.1,3.86,3.86,0,0,0,1.1-2.7,3.77,3.77,0,0,0-1.1-2.9A3.53,3.53,0,0,0,541.2,13.1Z"/><path class="cls-1" d="M714.6,72.3c.7-.4,1-1.4,1-3.1a25.05,25.05,0,0,0-1-6.3,37.49,37.49,0,0,0-10.4-17.7,33.59,33.59,0,0,0-23.6-9.1A34.88,34.88,0,0,0,663,40.8,34.94,34.94,0,0,0,645.6,71a33.87,33.87,0,0,0,9.6,24c6.7,7.3,15.1,10.9,25.3,10.9a33.83,33.83,0,0,0,25.3-10.6c4-4.1,7-9.7,9-16.6h-5c-2.4,8.3-7.1,14.5-14.1,18.5a29.69,29.69,0,0,1-15,4.1,28.61,28.61,0,0,1-14.8-4,30.7,30.7,0,0,1-10.8-10.4,28.9,28.9,0,0,1-4.4-14.1h58.9A10.29,10.29,0,0,0,714.6,72.3ZM660.3,48.7a29.6,29.6,0,0,1,35.1-4,30,30,0,0,1,12.3,13.1,28.25,28.25,0,0,1,2.9,10.5h-60A29.34,29.34,0,0,1,660.3,48.7Z"/><path class="cls-1" d="M771.2,41.5a23.91,23.91,0,0,0-15.4-5.4,25,25,0,0,0-12.4,3.3,24,24,0,0,0-8.8,8.5c-2.5,4.3-3.8,10.5-3.8,18.7v38.2h4.8V67.5a53.31,53.31,0,0,1,.7-10.1,23.64,23.64,0,0,1,2.7-7.1c3.6-6.3,9.2-9.5,16.6-9.5a18.93,18.93,0,0,1,17,10.1,22,22,0,0,1,2.4,6.6,60.6,60.6,0,0,1,.6,10v37.4h4.8v-37c0-7.2-.7-12.6-2-16.4A22.31,22.31,0,0,0,771.2,41.5Z"/><path class="cls-1" d="M814.7,66.9c-4.3-1.7-7.3-3.6-9.1-5.6a11.13,11.13,0,0,1-2.7-7.7,11.45,11.45,0,0,1,4.3-9,15.18,15.18,0,0,1,10.2-3.8q5.25,0,13.5,3.6V39.2a31.89,31.89,0,0,0-12.5-3,22.82,22.82,0,0,0-12.5,3.5,15.72,15.72,0,0,0-7.8,14A15.33,15.33,0,0,0,802,64.6a27.44,27.44,0,0,0,8.8,5.8c7.1,3.1,11.1,5,12.1,5.6a12.5,12.5,0,0,1,6,10.9,13.45,13.45,0,0,1-3.4,9.2,14.88,14.88,0,0,1-11.6,5.4c-3.8,0-9.1-1.5-15.9-4.6v5.2a33,33,0,0,0,14.8,4c5.9,0,10.8-1.7,14.5-5a18.94,18.94,0,0,0,6.4-14.6q0-7.5-4.8-12C826.4,72.2,821.7,69.7,814.7,66.9Z"/><path class="cls-1" d="M895.8,97.4a29.69,29.69,0,0,1-15,4.1,28.61,28.61,0,0,1-14.8-4,30.7,30.7,0,0,1-10.8-10.4A30.09,30.09,0,0,1,850.7,73h58.9c2.8,0,4.5-.2,5.2-.6s1-1.4,1-3.1a25.05,25.05,0,0,0-1-6.3,37.49,37.49,0,0,0-10.4-17.7,33.76,33.76,0,0,0-23.6-9.1,34.88,34.88,0,0,0-17.6,4.7,34.94,34.94,0,0,0-17.4,30.2,33.87,33.87,0,0,0,9.6,24c6.7,7.3,15.1,10.9,25.3,10.9A33.83,33.83,0,0,0,906,95.4c4-4.1,7-9.7,9-16.6h-5C907.5,87.2,902.8,93.3,895.8,97.4ZM860.5,48.7a29.6,29.6,0,0,1,35.1-4,30,30,0,0,1,12.3,13.1,28.25,28.25,0,0,1,2.9,10.5h-60A30.24,30.24,0,0,1,860.5,48.7Z"/><path class="cls-1" d="M587.1,55.7a17.68,17.68,0,0,1,8.7-2.3,16.65,16.65,0,0,1,10.8,4.2,20.69,20.69,0,0,1,3.8,4.6h6.5a21.54,21.54,0,0,0-4.9-7.7,23.77,23.77,0,0,0-7.5-5.1,22.71,22.71,0,0,0-8.8-1.8,22.32,22.32,0,0,0-11.5,3.1,24.15,24.15,0,0,0-8.6,8.5,24.1,24.1,0,0,0,0,24,22.38,22.38,0,0,0,8.6,8.4A23.88,23.88,0,0,0,596,94.7a21.94,21.94,0,0,0,12.5-3.8,23.44,23.44,0,0,0,8.4-10.4h-6.5a20.39,20.39,0,0,1-6.5,6.3,17.58,17.58,0,0,1-17.2-.3,17.62,17.62,0,0,1-6.2-6.5,18.53,18.53,0,0,1-2.3-9,17.32,17.32,0,0,1,2.4-9A18.63,18.63,0,0,1,587.1,55.7Z"/><path class="cls-1" d="M596.4,31.6c-9.9.2-18.5,3.4-25.5,9.6-8.9,7.7-13.3,17.5-13.3,29.4A38.52,38.52,0,0,0,562.7,90,37.47,37.47,0,0,0,578,105a36.9,36.9,0,0,0,17.8,4.6A38.7,38.7,0,0,0,622,100a36.82,36.82,0,0,0,13.2-29c0-10.5-3.4-19.4-10.1-26.7A37.12,37.12,0,0,0,596.4,31.6ZM621.1,93a32.25,32.25,0,0,1-25.3,11.4c-8.1,0-15.3-2.9-21.7-8.7A32.51,32.51,0,0,1,563,70.6a32.46,32.46,0,0,1,8.5-22.4c6.7-7.6,15-11.4,24.8-11.4a33.55,33.55,0,0,1,33.2,34.1A31.7,31.7,0,0,1,621.1,93Z"/><path class="cls-1" d="M61.2,37.8a16,16,0,0,0-8.8-2.7,16.13,16.13,0,0,0-14,8.3c-1.9,3.6-3,9.1-3,16.4v67.8a62,62,0,0,0,26.5,6,58.35,58.35,0,0,0,7.3-.5V59.7c0-6.9-.8-12-2.1-15A15,15,0,0,0,61.2,37.8Z"/><path class="cls-1" d="M16.3,37.1a16.22,16.22,0,0,0-4.5-1.6,61.67,61.67,0,0,0,13.8,86.3V59.4c0-8.1-1.3-13.9-3.6-17.3A14.76,14.76,0,0,0,16.3,37.1Z"/><path class="cls-1" d="M96.5,20.4V84.7h26a61.61,61.61,0,0,0-26-64.3Z"/><path class="cls-1" d="M91.5,93.4a5.39,5.39,0,0,1-3-2.2c-1.3-2.1-1.3-4.8-1.4-9.6V15.2A61.54,61.54,0,0,0,18.7,27.5a20.07,20.07,0,0,1,3.9,1.9,26.88,26.88,0,0,1,8.2,7.5,24.21,24.21,0,0,1,5.7-5.8,26.61,26.61,0,0,1,16.3-5.6,26.32,26.32,0,0,1,12.4,3.2,24.71,24.71,0,0,1,9.5,8.6,25.31,25.31,0,0,1,3.6,8.9,76.36,76.36,0,0,1,.9,13.4v71.5a61.92,61.92,0,0,0,40.7-37.5H96.4A17.38,17.38,0,0,1,91.5,93.4Z"/></g></g></svg>