<svg xmlns="http://www.w3.org/2000/svg" viewBox="0 0 512 512"><defs><style>.cls-1{fill:#012169;}.cls-2{fill:#fff;}.cls-3{fill:#c8102e;}</style></defs><g id="Слой_2" data-name="Слой 2"><g id="Слой_1-2" data-name="Слой 1"><g id="Layer_2" data-name="Layer 2"><g id="United_kingdom" data-name="United kingdom"><circle class="cls-1" cx="256" cy="256" r="256"/><path class="cls-2" d="M453.26,92.86,256,211.22,58.74,92.86a255.65,255.65,0,0,0-39.49,65.86L181.38,256,19.25,353.28a255.61,255.61,0,0,0,39.48,65.88L256,300.78,453.27,419.14a255.28,255.28,0,0,0,39.48-65.88L330.62,256,492.75,158.7a255.53,255.53,0,0,0-39.49-65.84Z"/><path class="cls-3" d="M51,408.87,280.87,270.93,475.29,387.58A254,254,0,0,0,487.39,365L280.88,241.07,475.29,124.43q-6.65-11-14.29-21.3L231.12,241.07,36.69,124.43q-6.57,11-12.08,22.6l206.51,123.9L36.69,387.58A256.1,256.1,0,0,0,51,408.87Z"/><path class="cls-2" d="M320,8.4a248,248,0,0,0-128,0V192H8.4a248,248,0,0,0,0,128H192V503.6a248,248,0,0,0,128,0V320H503.6a248,248,0,0,0,0-128H320Z"/><path class="cls-3" d="M294.4,3.19A257.24,257.24,0,0,0,256,0a257.24,257.24,0,0,0-38.4,3.19V217.6H3.19A257.24,257.24,0,0,0,0,256a257.24,257.24,0,0,0,3.19,38.4H217.6V508.81A257.24,257.24,0,0,0,256,512a257.24,257.24,0,0,0,38.4-3.19V294.4H508.81A257.24,257.24,0,0,0,512,256a257.24,257.24,0,0,0-3.19-38.4H294.4Z"/></g></g></g></g></svg>