<svg xmlns="http://www.w3.org/2000/svg" viewBox="0 0 456.71 340.36"><defs><style>.cls-1{fill:#1d1d1b;}.cls-1,.cls-2{fill-rule:evenodd;}.cls-2{fill:#fff;}</style></defs><g id="Слой_2" data-name="Слой 2"><g id="Слой_1-2" data-name="Слой 1"><polygon class="cls-1" points="19.82 42.12 43.64 42.12 36.26 66.79 36.26 120.7 43.64 124.96 43.64 245.56 19.82 245.56 19.82 42.12 19.82 42.12"/><polygon class="cls-1" points="42.8 42.12 47.79 42.12 66.05 88.73 84.17 42.12 114.49 42.12 114.49 115.67 95.68 115.67 95.68 66.79 75.99 115.67 55.85 114.16 55.63 114.19 36.26 66.79 42.8 42.12 42.8 42.12"/><path class="cls-1" d="M114.49,106.83l32.7-64.71h24.52l32.78,64.71-.75,8.84h-19l-7.87-16.42H142.24l-7.88,16.42H111.49l3-8.84ZM159.34,65l-5.47,11h11.55l-6.08-11Z"/><polygon class="cls-1" points="204.22 42.12 222.56 42.12 222.56 89.29 256.92 42.12 284.96 42.12 284.96 115.67 266.47 114.6 266.47 64.96 230.89 115.67 201.94 115.67 204.22 106.83 204.22 42.12 204.22 42.12"/><path class="cls-1" d="M290.65,42.12H364.8v73.55H290.65V42.12Zm56,48.91H309.3V65h37.38V91Z"/><path class="cls-1" d="M370.11,42.12h66.75V96.44H388.68v19.23H370.11V42.12ZM388.68,65h28.91v6.87H388.68V65Z"/><polygon class="cls-1" points="245.62 25.13 260.85 25.13 260.85 33.23 228.18 78.16 228.18 67.18 235.91 42.12 223.98 42.12 223.98 36.21 250.31 0 253.69 0 245.62 25.13 245.62 25.13"/><polygon class="cls-1" points="19.82 196.55 0 182.38 24.09 340.36 26.28 246.76 43.64 255.76 43.64 232.55 34.73 204.8 43.64 156.64 93.89 156.64 93.89 113.67 30.84 113.67 36.9 121.89 19.82 196.55 19.82 196.55"/><path class="cls-1" d="M103.14,113.67V238.81h24V208.48h64.65V113.67Zm24,43h41.13v8.94H127.11v-8.94Z"/><path class="cls-1" d="M197.31,238.81H299.48V113.67H197.31V238.81Zm24.19-82.17h53.87v39.54H221.5V156.64Z"/><polygon class="cls-1" points="304.75 238.81 304.75 113.67 344.97 113.67 370.92 193.4 397.02 113.67 436.86 113.67 436.86 196.18 456.71 182.38 432.57 340.36 431.02 246.76 413.2 255.76 413.2 156.64 385.32 238.81 356.97 238.81 328.72 156.64 328.72 238.81 304.75 238.81 304.75 238.81"/><polygon class="cls-1" points="85.75 113.67 97.86 113.67 97.86 156.64 85.75 156.64 85.75 113.67 85.75 113.67"/><polygon class="cls-2" points="21.82 44.13 21.82 105.25 34.26 105.25 34.26 56.14 35.76 56.14 55.56 105.25 76.56 105.25 96.28 55.99 97.86 55.99 97.86 105.25 112.48 105.25 112.48 44.13 85.71 44.13 66.06 93.79 46.18 44.13 21.82 44.13 21.82 44.13"/><path class="cls-2" d="M117.81,105.25l30.82-61.12h21.6l31.2,61.12h-17l-7.57-15.58H142.33L135,105.25ZM148,78l11.55-23.7L171.13,78Z"/><polygon class="cls-2" points="206.23 44.13 220.56 44.13 220.56 92.89 223.03 92.89 257.68 44.13 282.51 44.13 282.96 44.13 282.96 105.25 268.48 105.25 268.48 55.09 266.31 55.09 231.43 105.25 206.23 105.25 206.23 44.13 206.23 44.13"/><path class="cls-2" d="M292.66,44.13h70.13v61.12H292.66V44.13Zm14.63,11h41.4V93h-41.4V55.09Z"/><path class="cls-2" d="M393.72,44.13h41.13V86.22H386.67v19H372.12V44.13Zm-7.05,29.71H419.6V54.49H386.67V73.84Z"/><polygon class="cls-2" points="240.09 36.28 230.19 67.18 258.84 27.13 243.02 27.13 251.12 2.01 225.99 36.21 240.09 36.28 240.09 36.28"/><polygon class="cls-2" points="21.82 115.67 21.82 200.89 3.83 188.44 21.82 315.64 24.08 224.74 41.63 234.79 41.63 136.09 91.88 136.09 91.88 115.67 21.82 115.67 21.82 115.67"/><path class="cls-2" d="M148.2,115.67h41.55v72.77H125.1v30.3H105.15V115.67Zm-23.1,20.42h45.15v31.5H125.1v-31.5Z"/><path class="cls-2" d="M199.38,218.74h98V115.67h-98V218.74Zm20.05-82.35h58v61.8h-58v-61.8Z"/><polygon class="cls-2" points="324.91 115.67 343.66 115.67 370.96 199.62 398.41 115.67 434.85 115.67 434.85 200.52 453.01 188.22 434.85 315.64 432.46 225.12 415.21 234.57 415.21 136.02 412.66 136.02 384.76 218.74 357.01 218.74 329.26 135.72 326.71 135.72 326.71 218.74 306.76 218.74 306.76 115.67 324.91 115.67 324.91 115.67"/><polygon class="cls-2" points="95.68 115.67 76.45 115.67 76.45 136.09 95.68 136.09 95.68 115.67 95.68 115.67"/></g></g></svg>