<svg xmlns="http://www.w3.org/2000/svg" xmlns:xlink="http://www.w3.org/1999/xlink" viewBox="0 0 281.89 84.85">
    <defs>
        <style>.cls-1{fill:none;}.cls-2{clip-path:url(#clip-path);}.cls-3{fill:#ff025e;}</style>
        <clipPath id="clip-path" transform="translate(0 0)">
            <rect class="cls-1" width="281.89" height="84.85"/>
        </clipPath>
    </defs>
    <g id="Слой_2" data-name="Слой 2">
        <g id="Слой_1-2" data-name="Слой 1">
            <g class="cls-2">
                <path class="cls-3"
                      d="M280.2,39.41c2.32.07,2-.42.63-.51s-5.45,0-3.69-1.29c1.17-.85-1.42-.41-6.66-.59-9.33-.33-16.83.27-19.76-.7a2.65,2.65,0,0,0-1.79,0c-1.38.49-3.2.09-2.66-.14,2.82-1.2,4.26-.9,9.56-1.06.27,0,.75-.16.71-.21-.62-.81-1.7-.26-3.27-.44-3.44-.4-10.61.07-16.14-.81-2.42-.38-3,.52-5.85.07a.67.67,0,0,0-.27.15c-.11.18.58.3.92.3,3.19-.07,1.9.73,2.55.83,2.43.35,1.6,1.8-.51,1.83-9.11.11-8.35-.49-10.57.31-.63.22-1.68.22-10.44.11-3,0-7.71-.94-6.7-1.79,1.22-1,7.26-.88,9.62-.58,3.42.43,3-.37,7.24,0,.33,0,1.34,0,1.35-.14,0-.29-2.94-.61-4.52-1.15-1.14-.39-.8-1,.83-1.13,4.6-.47,28.08-.41,28.3-.41,3.35,0,3.3-.91,6.42-.55,1.24.15,1.36-.13,2.66-.71.71-.32,2.11,0,2.85-.37.43-.19,3.54-.94-.61-1.09-24.11-.85-17.56,1.12-19.93,1.55-2.86.53-3.9-.68-5.49-.59-4.5.26-7.76-.54-13,.3a8.63,8.63,0,0,1-3.81-.35c-1.57-.73-1.19-1.37-2.66-1.17-6.07.83-4.06-.46-7.45-.47-8.43,0-9.66-.37-11.56-1.24s.39-1.27,1.6-1.57.19-.65-.09-.92c-.77-.73,4.92-.3,9-.91,3.15,0,6.36-.26,9.39.28a5.67,5.67,0,0,0,1.54.05c2.87-.37,5.72.61,8.21,0,3.3-.85,4.13.18,9.71,0,9.53-.28,17.87.74,23.18.3a3.59,3.59,0,0,0,2.52-1.28c.34-.35,1.24-.4,2-.55a4.79,4.79,0,0,0,.51,0c1.7-.93.09-.34,2.73-1,.88-.2-.39-.66-1-.55-1.26.21-2.36.72-3,.39a6.35,6.35,0,0,0-2.88-.66,7.31,7.31,0,0,1-1.66-.4c-1.53-.34.47-.21-7.57-.56-.76-.68,1.68-.72.21-1.21-3.77-1.23.63-1.23,1.23-1.59-.63-.12-2.51-.1-2.3-.9.79-.21.79-.21.91-.55,1.16-.76-.83-.24.33-1.62a1.38,1.38,0,0,0,.83-.11c1-.19,2.95-.35-1-.65a1.58,1.58,0,0,0-1-.19c-2.38-.91-2.9-.06-5-.12-5.57-.16-4.85-.7-6.52-.39s-3.24.48-8.25.05c-2.35-.2-3.17,1-6.93.37a43.6,43.6,0,0,0-5.09-.42c-1,0-1.26-.42-2.1-.51-1.47-.16-3.18,0-3.07-.66,0-.16.7-.34.62-.47-.29-.47-2.47-.11-3.19-.79-.12-.12-1.15-1-1.48-.93-2.39.4.69,1.75-3.45,2.07-1,.08-2,.28-3,.26-2.9-.08-3.24.82-4.75.43-5.1-1.29-7.19-.25-11,.22-2.28.27-1.08-.79-2.83-.74-4.86.15-2.89-.31-7.12-.4-4-.09-6,0-6.5-.36-2.87-2.5,4.87-.82,5.95-2,.45-.48.61-1-.83-1-10.2.25-9.48-.38-10.53.33-2,1.38-4.11-.07-5.48-.3-.83-.14-1.37.35-2.74.37-4.83,0-9.73-.32-13.7-.14-6.11.27-5.5-1.63-7-.88a5.59,5.59,0,0,1-4.23,1c-3.15-.27-3.29-.62-4.92-.27-2.42.52-3.29,0-10.25.71-1.48.15-.88,0-6.75-.15-4.28-.14-6.17.32-6.44-.53-.06-.19.08-.69-.89-.71-6.3-.14-7.83.14-8.86-.89-.54-.52-2.81-.43-1.62-1.53s-2.46.16-4.72-1.25a8.79,8.79,0,0,0-1.69-.4c0-.29-.24-.55.4-.84,1.83-.81-3.36-.73-3-2.13C82.9,0,80.76,0,79.64,0c-.48,0-.64.1-.43.25,2,1.4,3.25,1.11,3.64,3.05-5.1.56-7.58-.39-8.3.47-1,1.12,1.9.7,3.46,1.72.3.2-.31.57-.91.54-1.39,0-2.81-.09-4.17-.2C72.17,5.77,70,5.26,71.29,5c1.79-.39,2.58-.33,1.72-.6-2.68-.83-3.12.42-5.27-.1a13.39,13.39,0,0,0-5-.13,1.75,1.75,0,0,0-1.32.23c-1.82,0-3.62-.19-5.43,0A5,5,0,0,0,54.22,4c-1.08-.54-.8-.58,1.11-1.23a5.75,5.75,0,0,0-1-.18c-.44-.4-1.54-.27-3.18-.2a38.83,38.83,0,0,1-7.28-.89c-1.75-.28-4.29.65-2.94,1,3.34.78,3.53.87,3.84.55.48-.5,3.67-.6,5.21-.38,1.26.19,1,1.14-1.4,1.31A4.7,4.7,0,0,0,47.13,4a15.08,15.08,0,0,1-3.39.43c-3.18,0-1.6,0-2.93-.25a2.21,2.21,0,0,0-2.4.59c-.8.28-.88-.07.11,1.49.1.16.72.22,1.21.08a6.81,6.81,0,0,1,2.16-.47c1.28,0,4.65-.28,5,.81.58,2,3.9,1.11,5.23,2.78.21.26-.41.45,1.71.77,2.47.39-.84,1.19-1.93,1-4.07-.61-7.29-.15-11.46,0-7.7.19-8.09.14-8.95.22-2.05.18-1.7.84-1.15.93,5.93.93,8.24,1.06,7.09,1.91-.59.43-1.17.28-.64.74a4.3,4.3,0,0,0,2.68-1c.6-.85,6.74-.66,7.48,1.05.47,1.08.39,1.36,0,1.63-.67.51-2,1.49-3.38,1.15-2.39-.61-2.16.62-4.74.37-3.27-.32-4.74-.23-10.5-.39-1.85-.73-3.86.44-5-.4-.75-.54,1.29-.58.77-.93s-.76-.54-.66-.86c.16-.48-4.16-1.1-7.71-1.1a1.91,1.91,0,0,1-1.17-.31c-.82-.45.49-.66,1.49-1,1.3-.46-1.1-1.11-3-1-2.45.13-2.45-.57-3.38-.68-3.74-.41-.86,1.18-3,1.32-1.13.07-1.12-.2-1.42-.39-2-1.27-4.06,0-3.87.33.57.81,2.07,1.23.34,1.64-.93.22-2.37.3-1.48.7C2.1,16,3.89,14,5,13.75c.89-.19,1.45.23,2.21.34a18.91,18.91,0,0,0,3.59.19c1,0,1.55.4,1,.82s-1.59,0-2.21-.06c-1.79-.24-3,.71-1.42.71,4,0,6.19,2.08,3.14,2.12a45.55,45.55,0,0,0-5.25.2c-3.74.46-.48,2.25,4.87,2.44a66.9,66.9,0,0,1,8.33.44,34.8,34.8,0,0,0,5.72.29c.35.3.39.57-.6.75s-.68.62.71.67,1.35-.17,1.69-.67c2.14-.22,2.2-.66,3.68-1,1-.22,2.75.07,2.85.45.18.66-.39,1.31.07,2,.14.19-1.69,1.28-6.54.94-1.16-.08-2.15-1.43-3.46-.31-.23.19-.92.53.27.76,1.43.28.9.76.83,1.32s.71.57,3.07,1.38C29,28,28.64,29,27.1,29c-8.11-.08-5.21-1.4-8.93-1.53-.43-.29-1.57-.51-.86-.94s-.41-.78-1.27-.82-1.31.25-.95.41c1.13.54,2.67.95,1.81,1.17A18.81,18.81,0,0,1,13,28c-.11,0-3.06-.11-3-.08,1.82.78,2.91.19,3.65,1.34.39.6,1.56.64,2.62.79,5.61.8-2.73,3.23,10.13,3.35,1.05,0,2.13,0,3.15,0a15.55,15.55,0,0,0,2.56,0c2.92-.25,6.78.07,13.14-.44,2.59-.2,4.17.42,4.18,1.19,0,1-3.69.91-4.36.81a139.44,139.44,0,0,0-20.41-.44c-.84.08-5.84.3-7.49-.38-.91-.37-1.72-.35-6.06-.26-.88,0-3.68.06-3,.39,2,1-2.29,1.35,0,1.46,1.52.07,2.61.25,3,.84s2.88.9.74,1.72c-2.29.88,1.49-.11,4.7,1.48,1.7.85-2.15,1.06-2.77,1.69s-6.18,0-4.94,1.33c1.42,1.45-4.1,2.37,9.56,3.17,1.55.09,2.9.06,3.27.69s-1.68.62-4.13.82c-10.08.86-11.49.75-7.66,1.7,1.23.31-.08.77,1.69,1a29.35,29.35,0,0,1,4.48.5c2.5.31,5,.62,6.46,1.47a4.12,4.12,0,0,0,1.41,0,15.55,15.55,0,0,1,4-.34c3.19.1,8.53.07,4.12,1.37a4.7,4.7,0,0,0,2.2.29,4.76,4.76,0,0,0,2.11.11c1,.12,1.34-.27,2.11-.33,1.33-.12-1.5-.23-2.14-.27-2.79-1.79,3.88-.89,4.58-1.35,0,0,.6-.23.56-.29-1.07-1.58-1.11-1.32-1.94-1.36-5.67,0-6.62.13-6.24-.21a1.32,1.32,0,0,1,.49-.3c1.82.15,3.3-.37,5.15-.27,3.78.19,1.15-1.38,4.93-1.56,6.2-.3,7-.24,7.49.15s1.59.41,5.17.74c4.09.37.15,1.09,3.39,1.94,2.1.54-.46,1.37.39,1.82s-.48,1.31-1.33,1.65c-2.33.95.79,1.92.88,2.13.21.46-2.57.71-3.61.18-2.9-1.46-1.69-1.07-1.18-2.15.06-.11-.48-.38-1-.27-3.93.8-3.91.45-6,1.36-1,.45-2.73-.54-3.51,0-1,.79-.88,1.45-3.22,1.41-4.53-.08-4.32-.1-5.17-.58a2.31,2.31,0,0,0-1.7-.19c-1.71.43-3.78.64-5.44,1.11-2.26.64-4.56-.12-5.07.63-1,1.41.54,1.3-10.1,1.43-1.19,0-.07.88.78.71,3.14-.63,2.9.73,4.9.85,3,.17,6,.71,9-.14,2.12-.61,10.77.17,15.64-.21,1.32-.11,2.79,0,4.19,0s1.48,0,1.73.48c.43.75,2.31.93.56,1.39-3.56.94-3.33-.55-5.87.17a3.48,3.48,0,0,1-2.57-.21c-2-.49-1.24.59-5.1.91-3.45.28-4,.34-4,.61.13.9-2,.62-2.13,1.06s-2,1.2-6,.78c-.91-.1-.69-.55-.76-1s-3.39-.48-3.61.35c-.31,1.17-7.07.66-6.14,1.26s3,.09,5.72,1.09c.3.11.28.42-.13.47a33.73,33.73,0,0,0-4.74,1.13c-1.11.3,3.87.69,5.24-.33,1.14-.85,2.4-.31,6-.94,5.1-.89,5,1,5.7-1.09a1.9,1.9,0,0,1,1.22-.24c1.27.56,3.64.43,5,1a5.11,5.11,0,0,0,1.47.16c3.79,0,3.27,1.49,7.78,1.66,1.24.05,1.29.33,2.33,1.51.31.35-1.15.55-2.16.64-5.09.43-4.24-1.18-6.73-1.29-1,0-2-.81-4,0-.3.13.38.19.39.31,3.32,0,2.2.83,1.06.9-1.55.08-.89-.57-1.36-1-1.42-.25-2.61.91-5.44,1a1,1,0,0,0-.69.45c-.15.36-.72.56-1.72.52-2.76-.14-1.8.65-4.86.87-1.75.13-3.43.18-3.79.76-.09.14.09.22.53.25,4.11.28,7.65-.57,6.29,1.21-.59.77-.56,1,1.62,1.44,3.38.62-1.44,1.73-3.55,1.8-1.51,0-3.7.73-3.35.92s0,.16,4.47,1.22c1.16.28,1.11.84,2.56,1.11s1.43.54,1.8,1.37c3.81.1,2.67.68,4.86.37.78-.1,3.26-.67,3.63-.7,2.78-.14,8.29-.46,10.24.29,1.13.43,2.69.23,5.36.66,5.61.92,6,1.32,8.71,1.13,1.62-.11.64-2,3.29-2.06,2.3,0,4.27-.6,6.68-.45a4.7,4.7,0,0,0,1-.13c16.2-2.77,23-.19,24-.15,1.38,0,.83-.76,3-.85,13.06-.54,12.73-.42,17.93-.53,15.65-.33,3.75-1.71,11.39-2.48,1.5-.15,115.14-.29,120.74-.1,10.78.37,19-.53,10.14-.54-11.44,0-8.43-.47-15.21-.55-3.7,0-7.41.12-11.09-.12a12,12,0,0,0-1.58,0c-2.11.18-3.95-.2-6.3-.13-4.21.14-10.31-.62-13.65-.4,0,0-5-.22-8.42-.22-5.52,0-3.27-.37-6.21-.16a43.3,43.3,0,0,1-5.23-.12c-1.19,0-1.1-1.09,2.13-1,2.13.06,11.25.15,14.21-.16,8.51-.88,86.38.36,60.34-.72-1.21-.06-2.41.16-3.65,0-3.56-.49-8.94.66-9.14-.71,0-.19-.08-.21,2.13-.29s1.17-.25,4.09-1c.09,0,0-.11.07-.16.17-.58-6.4,0-7.7-1.05a4.21,4.21,0,0,0-2.66-.4,55.21,55.21,0,0,1-5.75.16c-.83,0-1.69-.27-2.47-.24-4,.17-5.67-.35-15.18-.21a29.66,29.66,0,0,1-5.12-.25c-1.46-.54-2.41-.07-6-.41-.47,0-.65-.5-.07-.58,4.38-.58,4.37.84,6.1.35,2.88-.81,6-.14,7.55-.22,2.3-.13-.36-1.5-1.66-1.17-2.05.53-3.75-.63-6.27-.54-.79-.66-.61-.2.07-1.35.05-.08-.5-.13-.78,0-.95.37,1,.81-.63,1.12a3.12,3.12,0,0,0-.66.27,9.72,9.72,0,0,0-1,.09c-3.29.7-4.74-.25-9.67-.16-6.35.11-3.64-1.5.19-1.46,6,.07,7.91-2.67,12.8-1.27a8.18,8.18,0,0,1,2.86,1c.36.34.85.37,2.1.14,2.29-.41,4.85-.45,5.65.66.94,1.31-3.88,2.5,4,1.91a.59.59,0,0,0,.4-.27s-.2-.1-.35-.13c-.73-.13-2.59-.34-2.14-.64,1.94-1.28,2.4-1.41,2.95-1.44,4.09-.27,2.61-1.91,19.82-1.79.06,0,.19-.08.17-.1-.32-.27-18-.74-18.56-.71-1.07.06-2.84-.92,1.06-.66a13.21,13.21,0,0,0,1.93-.16,89.46,89.46,0,0,0,9.18-.24c2.51-.28-6.83-.25-9.16-.26a41.4,41.4,0,0,0-6.35-.06c-5.08-.74-2.14-1.18-1.14-1.41,2.06.49,4.45.12,6.64.29,2.41.19,4.37-.31,8.33,0a5.11,5.11,0,0,0,.92-.09c-1.62-.33-4.1.14-6.91-.44-.55-.12-.76-.08-8.95-.1-4.51-.79-20.6.07-21.69-1.27-.18-.22-1.33-.32-1.52,0-.5.8-2.23.67-7,.59-5.09-.09-7.76,0-7.57-.93a5,5,0,0,0-.78-.08.78.78,0,0,0-.38.12c-.65.54-1.12.71-6,.57-3.42-.1-3.87-.31-3.75-.65s.75-.75-.22-.78c-16.75-.45-21.09-.4-19.95-1.11s9-.16,11.49-.84c.61-.16,1.61.17,2.5,0,3.54-.63,8.09-.12,11.48-.46,3.62-.37,9.24-.16,10.52-.21,2.35-.07.75-.73,5-1.12.73-.07.75-.41.79-.6.15-.65-30.14-.55-30.69-.57s-1.33-.27-1.35-.49.71-.52,1.17-.55c3.95-.3,35.38.31,36.83,0,3.68-.9,16.71.14,23-.13a27.61,27.61,0,0,1,3.15.08c6.44.42,11.34-.12,16.86,0A119.12,119.12,0,0,0,274.19,51l4.83,0,.43-.36a3.05,3.05,0,0,0-.71-.64c-38.79-.4-91-1.15-91.34-1.17-13.94-1,51.08-.58,71.59-.08,1.38,0,5.12-.17,6-1.15s-2.1-.28-3.91-1-7.4,0-4.73-1.19a45.74,45.74,0,0,1,8.36-1c.84,0,3.06-.36,4.5-.46,3.49-.25,7.47-.42,11.55-.53a26.83,26.83,0,0,1,1.05-2.87h-.58c-8.93.15-6.19-1.37-1-1.23M208.63,15.05c.57-.19,1.09-.16,4.1-.19,3.41,0,2.76.7,3.92,1,1.47.35.86.08,2.88-.06,3.14-.23.21-1.3,3.51-1.55,2.6-.19,4.19-.08,10.54,0a11.66,11.66,0,0,0,2.08,0c2.69-.58,5.5-.23,8.27-.19a3.54,3.54,0,0,1,2.08.43c1.62,2.21,1.56,2.46-.14,2.86-1.48.34-3.3.07-3.62.51s1.57.73,2.78.91c.75.12.9.81.43,1-1,.41-.67,1.18-2.44,1.33-4.21.37-4.67-.59-7-.31a4.89,4.89,0,0,1-1.45,0c-1.86-.65-10.6-1.23-8.59,0,.16.1.42.19.56.3s-.2.54-.84.53l-2.12-.06c-3.23.31-3.73-.39-3.2-.58s2.82-.69,1.36-.87c-2.12-.26-3.25-.28-3.17-.75,0-.21.45-.33,1-.35,9.85-.45,6.7.36,10.23-1,.7-.28.19-.79-.88-.85-1.56-.09-3.14-.17-4.72-.2-6.9-.15-6.73-.49-7.69-.22-1.72.49-3.44.26-7.54-.18-1.55-.17-1.37-1-.31-1.39M18.91,16.45c-.62.61-2.86.41-3.82,0-1.78-.76,5.54-1.66,3.82,0m10.83,15c-.86,0-1.7-1.14.18-1.26,6.54-.4,4.37,1.4-.18,1.26M54.47,9c-.41-.37-.87-.81.23-.93a2.77,2.77,0,0,1,.91.08c1.6.79-.82,1.15-1.14.85M49.78,67.91c-.34.27-1.71.3-1.79-.1s2.27-.3,1.79.1m-12.33,8.8c-1.54.07-1.91-.83-.15-.89s1.79.81.15.89M43,77c-.28.23-3.34.72-2.06-1.14.13-.19,2.3-.37,2.36.09a1,1,0,0,1-.3,1m8.12-4.26c-.75.4-2.75,0-1.78-.48.78-.36,2.71,0,1.78.48m7.18.49c-2.46.15-4.25-.52-2.82-.82,2.46-.53,4.45.73,2.82.82m11.73-9.62a20.32,20.32,0,0,1-6.76-.7,4.08,4.08,0,0,0-1.84-.18c-1.66.19-3,.07-6.34-.61-.55-.11-.56-.63.65-.63a8.92,8.92,0,0,1,1.56.07,22.53,22.53,0,0,1,3.1,0c1.65.28,3.52.11,5,.38a16.12,16.12,0,0,0,3,.13c2.94,0,3.93,1.44,1.57,1.51m168.53,1.68c-.46.19-2.42-.5-.55-.72.78-.09,1.58.3.55.72m-27.74-2c.73-1,.83-1.42,2.42-1.4.55,0,12.14.33,14,.09,2.3-.3,5.07,1.32,8.7.1l3.1.06c.58.58,1.41,0,1.62.86.1.4-.84.43-2.72,1-3.24,1-5.54-.49-8.79-.4-2.28.06-4.46-.39-6.73-.09a15.62,15.62,0,0,0-5.33.07c-3.2.88-6.71.3-6.29-.3M166.43,24.76c-.13.54-2,.49-2,0s2-.34,2,0m-12.12,27c.11-.38,2.09-.3,1.84.18s-2,.41-1.84-.18m2.67,4c1.36.1,4.66-.19,4.11.56-.36.5-2.44.14-4.2.4-2.93.43-13.6.38-12.2-.57.52-.35,1.19-.43,3.68-.35,4.4.15,1.78-.54,8.61,0m-7.93-4.12c.35.17-.08.58-.59.6-14.44.45-2.67-2.14.59-.6M137.71,10.19c2.75-.19,3,.6,1.95.78-2.34.43-4.75-.6-1.95-.78M109.3,49.52a1.68,1.68,0,0,1,1.08.3c.27.77-2.22,1.27-3.78.83-.51-.14-.57-.53,0-.64.89-.18,1.82-.34,2.75-.49m-1.43-39.07c.39.1.26.35-.16.42-3.21.53-2.52-1.13.16-.42m-.23,44.81a26.57,26.57,0,0,0,7.34-.89c-.41-.27-.84-.51-1.17-.78-.51-.4,1.84-.92,4.64-.58,2.51.29,5.26.09,7.72.48,1.32.21,3.21-.77,4.72,0,.38.21.25.47-.36.63a6,6,0,0,0-.89.18c-.86.5-.19.83.57.87,3.11.19,6.24.35,9.41.36,3.49,0,3,.92,2,1-.35,0-25.34.06-26.33.07-4,0-4.21-.32-6.24-.25-8.31.32-9.12-1.48-1.37-1.15M93,49.89c.33,0,.66,0,1,.09s.69.29.47.43c-1.46.9-4.83-.4-1.44-.52m-6.67,6.69c-.06.42-1.7.42-2,0-.08-.31,2-.46,2,0M82.79,6.88c.37-.71,3.39-.38,2.82.09a2.69,2.69,0,0,1-2.82-.09m4.28,58.21c.15-.1.23-.23.46-.28a2.81,2.81,0,0,1,1.7.17c.61.67-2.16.6-2.16.11m41.72-1.16c-2.09-.47-2.6-.18-3.38.14,1.91.47,3.36-.2,4.05.68,1.23,1.56-4.88.82-5.43.68-3.18-.8-5.44.18-6.4.08-2.22-.23-4.55.19-6.76-.13s-15,.84-12.92-.58c1.18-.79,2.6.11,6.59-.44,1.76-.24,5.75.23,4.85-.34-.5-.32-.27-.18-.68-.12-2.46.33-1.15.29-9.69.09-1-.94-1.76.39-7.66-.06-2.61-.2-4.83.39-7.2-.1-2.57-.53.3-2,4.22-1.67,1.19.09,2.8.5,3-.06.63-1.46.33-.8,7.37-1,1.46,0,2.71.36,4.08.21a28.57,28.57,0,0,1,3.61-.22c.26.28.49.57.08.86-.94.69,1.52.59,2.53,1.36.26.2,0,.23.42.12,5-1.17,6.28-1.43,6.4-1.6a.58.58,0,0,0-.23-.2c-7.42.21-6.81.36-6.89-.5a42,42,0,0,1,5.62-.15c.75,0,1,.18,1.27.65.15.08.28.13.23.2a.3.3,0,0,1,0,.08,4,4,0,0,0,2.3,0c.51.08.2.11,1-.09,4.54,0,4-.16,5.14.64a1.09,1.09,0,0,0,1,.3c2-.22,4.23,0,6-.52a9.93,9.93,0,0,1,2.48.14,12.18,12.18,0,0,0,5.3-.34,4,4,0,0,1,3,.38c1.19,1-7.15,1.15-8,1.36-2-.1-4.06-.29-5.39.15m7,2.18c-1.62.23-1.68-.22-1.9-.41.16-.65,1.91-.65,2.53-.31.47.25.23.59-.63.72m17.25,1.39c-2.56-.27-.26-1-2.85-1a10.06,10.06,0,0,1-3-.21,2.88,2.88,0,0,0-2.14-.09c-1.25.38-3.91.13-3.35-.42.35-.33,2.84-.29,3.83,0s1.71-.24,3.32-.27c5.66-.1,6.7,0,6.58.46-.18.75,1.41.44,2.75,1.11,1.09.55-3.48.68-5.13.51m14.26.09c-1.58-.14-.09-1,.68-.46.36.23-.08.51-.68.46m14.32-4.88a2.52,2.52,0,0,0,.61,0c.1.16.83.22,1.22.07,1.81-.71,7-.76,9.45-.68,5,.17,2-.42,8.35,0,2.08.14.21,1.08,4.36,1,1.38,0,2.8,1.11,2,1.42-2.63,1-9-.22-7.84.55s2.12.61,3.78.81c1.06.13.94,1-.51,1a33.58,33.58,0,0,0-4.71.1c-3.34-.57-3,.29-6.54-.15-.7-.09-.71-.38-.93-.61-.45-.48-1.74.09-3.84-.14-2.51-.28,1-1.54,2.86-.63.2.09.21.24.41.33a2.28,2.28,0,0,0,.78.18c2.37-.44,5.93-.89,4.84-1.12-4.62-1-4.2-.8-5-.75-2.29.18.15.33-9.27-.31-.46,0-.67-.28-.38-.45s.95-.3.93-.54c-2.4-.54-4,.63-6.44.88-2.21.22-1.46,2.86-3.75,2.45-4.53-.82-3.2-.1-8,.47-1.09.12-.44,1.08-2.54.94-2.87-.2-1.14-1-2.38-1.61-.41-.19,1.29-1.47,2.09-1.8,2-.83,1.34-1.71,3.57-1.64a25.84,25.84,0,0,0,4.09-.22c4.31.44,10.86-.85,12.77.41m-13.58-11c.36-.42,5.19-.4,5.38.1.3.81-6.05.68-5.38-.1m4.08-24.79c-3.12.11-4.87-.57-.5-1.05,1.88-.2,2.83,1,.5,1.05m11,.47c-1.54.15-2.29-.91-.46-1s2.22.85.46,1M194,16.4c-7,.32-3-2.16.9-.48.32.14.05.44-.9.48M242.19,36a5.9,5.9,0,0,0-2.27.3c-1.14.53-4.87-1.56.71-1,4.48,0,2.73.73,1.56.73M244,45.59c.89-.29,1.9-.28,2.21.11s-3.53.33-2.21-.11"
                      transform="translate(0 0)"/>
            </g>
        </g>
    </g>
</svg>