<svg xmlns="http://www.w3.org/2000/svg" viewBox="0 0 195.94 200.67"><defs><style>.cls-1{fill:#fff;}</style></defs><g id="Слой_2" data-name="Слой 2"><g id="LOGO"><polygon class="cls-1" points="0 110.15 10.78 110.15 10.78 93.29 24.46 93.29 24.46 110.15 35.25 110.15 35.25 86.34 0 86.34 0 110.15"/><path class="cls-1" d="M40.68,101.54c-.58.71-1.34.9-2.79.9h-.76v7.71h4.16c5,0,7.26-1.06,8.67-3.52s1.76-6.3,1.76-13.44H62.87v17H73.66V86.34H41.8C41.8,98.53,41.48,100.49,40.68,101.54Z"/><path class="cls-1" d="M141,85.9H140c-11.94,0-15.91,4.38-17,8.57h-2.29V86.34h-10.5v23.81h10.5v-8.73h2.17c1,4.35,4.77,9.18,17.15,9.18H141c15.33,0,17.63-7.23,17.63-11.94v-1C158.66,92.94,156.39,85.9,141,85.9Zm6.5,12.44c0,2.34-1.63,5.16-7,5.16s-7-2.88-7-5.22V97.9c0-2.28,1.47-5,7-5s7,2.68,7,5Z"/><path class="cls-1" d="M178,92.94c6.11,0,6.78,2.72,6.94,3.29h11v-.45c0-3.29-2.05-9.88-17.25-9.88h-1.18c-15.71,0-17.76,7-17.76,11.8v1c0,4.74,2.21,11.94,17.76,11.94h1.18c15.17,0,17.25-6.69,17.25-9.95V100h-11c-.1.54-.67,3.52-6.91,3.52-5.83,0-7.11-3-7.11-5.22V97.9C170.88,95.56,172,92.94,178,92.94Z"/><path class="cls-1" d="M70.47,166.23l-.64-.2-3.41,10.5c.49.26,3.14,1.72,1.21,7.66-1.8,5.54-5,5.84-7.15,5.14l-.37-.12c-2.22-.72-4.36-2.63-2.53-8.26,1.89-5.81,4.68-5.61,5.28-5.58l3.41-10.5-.42-.14c-3.15-1-10-1.11-14.74,13.35l-.36,1.13c-4.86,14.94,1.17,19,5.74,20.53l.91.3c4.51,1.46,12,1.59,16.84-13.2l.37-1.13C79.29,171.29,73.58,167.24,70.47,166.23Z"/><path class="cls-1" d="M79.65,118.88l-10,3.51L66,133.76h0l-9.12,28.05L64,164.12l3.09-9.5,15.55,5,3.34-10.28-15.55-5.06,3.08-9.49L67.92,133l16.48-6.16,5.94,9L94,124.74,77.16,99.37l-3.5,10.78Zm.25.38h0Z"/><path class="cls-1" d="M128.75,17.61l3.34-10.25L109.45,0,102.6,21.06c-2.63,8.1.16,11.93,4.18,13.24l.64.2c3.5,1.14,6.94-.33,9.56-5.1L121.5,40l4-12.29-4.2-9.14,1-3Zm-15,4.31c-.61,1.89-1.77,2.35-2.9,2h0c-1.1-.35-1.8-1.39-1.19-3.27l2.71-8.35,4.11,1.34Z"/><polygon class="cls-1" points="95.11 44.12 103.43 60.53 91.08 56.52 87.75 66.78 110.39 74.13 113.64 64.15 105.34 47.74 117.66 51.75 121 41.49 98.35 34.14 95.11 44.12"/><path class="cls-1" d="M102.16,77l-16-5.21-9,27.59c10.25,3.33,13.1,4.73,15.44,7l-1.21,3.74,10,3.24,3.1-9.52-3.38-1.1,5.69-17.53,3.38,1.1,3.09-9.49-10-3.25ZM95.71,96.85c-1.46-1.51-4.39-3.07-8.94-4.58L89.47,84,98.9,87Z"/></g></g></svg>