<svg xmlns="http://www.w3.org/2000/svg" viewBox="0 0 512 512">
    <path fill="#d1d1d1" d="M421.18,385l-81.72-20.44-7-27.82a147.07,147.07,0,0,0,41.28-81.9A32.05,32.05,0,0,0,396.91,228l5.33-42.67a31.93,31.93,0,0,0-20.42-33.83l2-40.18,8-8c12-12.77,22-34.68,1.15-66.47C376.92,12.4,349.74,0,312.11,0c-14.85,0-49,0-80.86,21.38C140.37,23.27,128,65.49,128,106.67c0,9.58,2.32,31.14,3.86,44.16a32,32,0,0,0-22.1,34.49L115.09,228a32.11,32.11,0,0,0,25.67,27.46A148,148,0,0,0,180,334.85l-7.43,29.72L90.84,385A119.66,119.66,0,0,0,0,501.33,10.67,10.67,0,0,0,10.67,512H501.33A10.71,10.71,0,0,0,512,501.29,119.73,119.73,0,0,0,421.18,385Z"/>
</svg>