<svg xmlns="http://www.w3.org/2000/svg" viewBox="0 0 384 512"><defs><style>.cls-1{fill:#2067fb;}.cls-2{fill:#fff;fill-rule:evenodd;}</style></defs><g id="Слой_2" data-name="Слой 2"><g id="Слой_1-2" data-name="Слой 1"><path class="cls-1" d="M192,0C86,.14.14,86,0,192,0,329.84,178.88,502.48,186.48,509.76a7.92,7.92,0,0,0,11,0C205.12,502.48,384,329.84,384,192,383.86,86,298,.14,192,0Z"/><path class="cls-2" d="M239.39,189.53q5.67-8.57,5.66-26.24V146.53q0-18.37-4.07-27.2a22.24,22.24,0,0,0-13-12.08Q219,104,191.42,104H139V285h52.47Q219,285,228,281.75a22.19,22.19,0,0,0,13-12.07q4.07-8.83,4.07-27.19V225.72q0-17.65-5.66-26.24a21.67,21.67,0,0,0-4.88-5A21.84,21.84,0,0,0,239.39,189.53Zm-44.66,63.22c-1.74,2-5.78,3-12.12,3.29v-53.1c6.69.23,10.83,1.22,12.39,2.94s2.35,6.64,2.35,14.75v17.71h0Q197.35,249.82,194.73,252.75Zm2.62-79.28c0,8.11-.79,13-2.35,14.75s-5.7,2.69-12.39,2.93v-53.1c6.34.25,10.38,1.33,12.12,3.29s2.62,6.77,2.62,14.41Z"/></g></g></svg>