<svg xmlns="http://www.w3.org/2000/svg" xmlns:xlink="http://www.w3.org/1999/xlink" viewBox="0 0 244 46.56"><defs><style>.cls-1{fill:#1a2adf;}.cls-2{fill:#ff5f00;}.cls-3{fill:#eb001b;}.cls-4{fill:#f79e1b;}.cls-5{fill:#0f754e;}.cls-5,.cls-6{fill-rule:evenodd;}.cls-6{fill:url(#Безымянный_градиент_2);}</style><linearGradient id="Безымянный_градиент_2" x1="-258.89" y1="434.68" x2="-259.09" y2="434.68" gradientTransform="matrix(102.67, 0, 0, -39.67, 26824.19, 17261.18)" gradientUnits="userSpaceOnUse"><stop offset="0" stop-color="#1f5cd7"/><stop offset="1" stop-color="#02aeff"/></linearGradient></defs><g id="Слой_2" data-name="Слой 2"><g id="Слой_1-2" data-name="Слой 1"><path class="cls-1" d="M27.34,12.06,17.91,34.55H11.76L7.13,16.6a2.5,2.5,0,0,0-1.39-2A25.05,25.05,0,0,0,0,12.71l.14-.65H10a2.7,2.7,0,0,1,2.68,2.29l2.45,13,6.06-15.31ZM51.43,27.2c0-5.93-8.21-6.25-8.15-8.9,0-.82.79-1.67,2.47-1.89a11.06,11.06,0,0,1,5.74,1l1-4.76a15.58,15.58,0,0,0-5.44-1c-5.75,0-9.8,3.06-9.84,7.44,0,3.23,2.89,5,5.1,6.12s3,1.8,3,2.79c0,1.51-1.8,2.17-3.48,2.2a12.11,12.11,0,0,1-6-1.42l-1.06,4.93a18,18,0,0,0,6.47,1.2c6.12,0,10.11-3,10.13-7.71m15.19,7.35H72L67.3,12.06h-5a2.65,2.65,0,0,0-2.48,1.65L51.13,34.55h6.11l1.21-3.36h7.47Zm-6.49-8,3.06-8.44L65,26.58ZM35.65,12.06,30.84,34.55H25l4.81-22.49Z"/><g id="layer1"><g id="g13"><g id="g15"><path d="M102.92,46.45V43.36a1.81,1.81,0,0,0-2-2,2,2,0,0,0-1.75.87,1.82,1.82,0,0,0-1.65-.87,1.65,1.65,0,0,0-1.44.72v-.62H95v4.94h1.08V43.73c0-.88.46-1.29,1.18-1.29s1.09.46,1.09,1.29v2.72h1.08V43.73a1.14,1.14,0,0,1,1.18-1.29c.72,0,1.08.46,1.08,1.29v2.72Zm16-4.94h-1.76V40H116.1v1.49h-1v1h1v2.27c0,1.13.47,1.8,1.7,1.8a2.93,2.93,0,0,0,1.34-.36l-.31-.93a1.66,1.66,0,0,1-.92.26c-.52,0-.73-.31-.73-.83V42.49h1.76Zm9.16-.1a1.43,1.43,0,0,0-1.28.72v-.62h-1.09v4.94h1.09V43.67c0-.82.36-1.28,1-1.28a3.2,3.2,0,0,1,.67.1l.3-1a3.44,3.44,0,0,0-.72-.05Zm-13.85.51a3.56,3.56,0,0,0-2-.51c-1.24,0-2.06.62-2.06,1.59s.62,1.29,1.7,1.45l.51,0c.57.1.88.26.88.51s-.41.62-1.13.62a2.91,2.91,0,0,1-1.65-.51l-.52.82a3.68,3.68,0,0,0,2.12.62c1.44,0,2.26-.67,2.26-1.6s-.67-1.34-1.7-1.49l-.51,0c-.47-.06-.83-.16-.83-.47s.36-.56.93-.56a3.65,3.65,0,0,1,1.55.41l.46-.88ZM143,41.41a1.46,1.46,0,0,0-1.29.72v-.62h-1.08v4.94h1.08V43.67c0-.82.36-1.28,1-1.28a3.1,3.1,0,0,1,.67.1l.31-1a3.54,3.54,0,0,0-.72-.05ZM129.18,44a2.48,2.48,0,0,0,2.63,2.58,2.57,2.57,0,0,0,1.75-.57l-.51-.87a2.14,2.14,0,0,1-1.29.46,1.46,1.46,0,0,1-1.49-1.6,1.51,1.51,0,0,1,1.49-1.59,2.08,2.08,0,0,1,1.29.46l.51-.88a2.56,2.56,0,0,0-1.75-.56A2.47,2.47,0,0,0,129.18,44Zm10,0V41.51h-1.09v.62a1.86,1.86,0,0,0-1.54-.72,2.58,2.58,0,0,0,0,5.15,1.72,1.72,0,0,0,1.54-.72v.61h1.09V44Zm-4,0a1.5,1.5,0,1,1,3,0,1.5,1.5,0,1,1-3,0Zm-12.93-2.57a2.58,2.58,0,0,0,0,5.15,3.14,3.14,0,0,0,2-.67l-.51-.77a2.52,2.52,0,0,1-1.44.51,1.4,1.4,0,0,1-1.5-1.18h3.66V44a2.28,2.28,0,0,0-2.27-2.62Zm0,.92a1.21,1.21,0,0,1,1.24,1.19h-2.58a1.32,1.32,0,0,1,1.34-1.19ZM149.12,44V39.55H148v2.58a1.86,1.86,0,0,0-1.54-.72,2.58,2.58,0,0,0,0,5.15,1.72,1.72,0,0,0,1.54-.72v.61h1.09V44Zm-4,0a1.5,1.5,0,1,1,3,0,1.5,1.5,0,1,1-3,0ZM109,44V41.51h-1.09v.62a1.86,1.86,0,0,0-1.54-.72,2.58,2.58,0,0,0,0,5.15,1.72,1.72,0,0,0,1.54-.72v.61H109V44Zm-4,0a1.5,1.5,0,1,1,3,0,1.5,1.5,0,1,1-3,0Z"/></g><rect id="rect19" class="cls-2" x="113.89" y="3.97" width="16.22" height="29.15"/><path class="cls-3" d="M114.92,18.54A18.58,18.58,0,0,1,122,4,18.51,18.51,0,0,0,92,18.54a18.52,18.52,0,0,0,30,14.58A18.54,18.54,0,0,1,114.92,18.54Z"/><path id="path22" class="cls-4" d="M152,18.54a18.52,18.52,0,0,1-30,14.58A18.59,18.59,0,0,0,122,4a18.36,18.36,0,0,1,11.43-4A18.56,18.56,0,0,1,152,18.54Z"/></g></g><g id="sim"><g id="mir-logo"><g id="Group-5"><path id="Combined-Shape" class="cls-5" d="M178.66,13.46c.64,0,2.55-.17,3.36,2.56q.82,2.76,2.61,9.05h.48q1.92-6.63,2.64-9a3.23,3.23,0,0,1,3.68-2.56h6.31V33.1h-6.43V21.53h-.43L187.29,33.1h-4.84l-3.58-11.58h-.44V33.1H172V13.46Zm28.32,0V25h.52l4.36-9.52a3.47,3.47,0,0,1,2.65-2.06h6.23V33.1h-6.57V21.52h-.51L209.38,31a3.55,3.55,0,0,1-2.74,2.06h-6.23V13.46Zm36.46,9.33a7.33,7.33,0,0,1-7,4.46h-6.89V33.1h-6.24V22.79Z"/><path id="path24" class="cls-6" d="M236.76,13.46H223c.33,4.37,4.09,8.12,8,8.12h12.88A6.86,6.86,0,0,0,236.76,13.46Z"/></g></g></g></g></g></svg>