<svg xmlns="http://www.w3.org/2000/svg" viewBox="0 0 206.66 120"><defs><style>.cls-1{fill-rule:evenodd;}.cls-2{fill:#5b57a2;}.cls-3{fill:#d90751;}.cls-4{fill:#fab718;}.cls-5{fill:#ed6f26;}.cls-6{fill:#63b22f;}.cls-7{fill:#1487c9;}.cls-8{fill:#017f36;}.cls-9{fill:#984995;}</style></defs><g id="Слой_2" data-name="Слой 2"><g id="svg102"><path id="path60" d="M206.66,50.57V79.91H196.19V59.33H186.1V79.91H175.63V50.57Z"/><path id="path62" class="cls-1" d="M154.11,81c9.38,0,16.34-5.75,16.34-14.47,0-8.44-5.14-13.92-13.72-13.92a13.46,13.46,0,0,0-9.7,3.81,9.69,9.69,0,0,1,9.43-8.61l9.12,0L170.13,39s-10.11.23-14.8.23c-10.74.19-18,9.95-18,21.79C137.34,74.87,144.41,81,154.11,81Zm.06-20.67c3.48,0,5.89,2.29,5.89,6.2,0,3.52-2.14,6.42-5.89,6.43-3.59,0-6-2.69-6-6.37C148.17,62.64,150.58,60.29,154.17,60.29Z"/><path id="path64" d="M128.82,70.09a15.83,15.83,0,0,1-6.17,1.69c-4.25.13-8-2.56-8-7.32s3.34-7.32,7.92-7.32c2.81,0,6.53,2,6.53,2s2.73-5,4.14-7.49a16.4,16.4,0,0,0-10-3c-10.09,0-17.91,6.58-17.91,15.83s7.35,15.79,17.91,15.6a21.29,21.29,0,0,0,9.51-2.74Z"/><path id="path66" class="cls-2" d="M0,26.12l14.53,26V67.94L0,93.86Z"/><path id="path68" class="cls-3" d="M55.8,42.64,69.41,34.3l27.87,0L55.8,59.68Z"/><path id="path70" class="cls-4" d="M55.72,26l.08,34.39-14.57-9V0L55.72,26Z"/><path id="path72" class="cls-5" d="M97.28,34.27l-27.87,0L55.72,26,41.23,0,97.28,34.27Z"/><path id="path74" class="cls-6" d="M55.8,94V77.32L41.23,68.54V120Z"/><path id="path76" class="cls-7" d="M69.38,85.74,14.53,52.1,0,26.12,97.22,85.7l-27.84,0Z"/><path id="path78" class="cls-8" d="M41.24,120,55.8,94l13.58-8.27,27.84,0Z"/><path id="path80" class="cls-9" d="M0,93.86,41.35,68.54,27.45,60,14.53,67.94Z"/></g></g></svg>