<svg xmlns="http://www.w3.org/2000/svg" viewBox="0 0 665.3 321.79"><defs><style>.cls-1{fill:#15a031;}</style></defs><g id="Слой_2" data-name="Слой 2"><g id="Layer_1" data-name="Layer 1"><path class="cls-1" d="M660.15,121.31c-10.62-40.92-33.52-72.9-69-95.94C564.12,7.8,534.38-.06,502.28,0q-87,.15-174,0V.12c-54,0-108,.08-162,0-19.11,0-38,1.64-56.13,7.8A163.19,163.19,0,0,0,50.31,43.79a155.23,155.23,0,0,0-38.43,56.39C2.39,124.05-1.68,148.69.64,174.42c3,33.12,14.44,62.9,35.64,88.4,32.7,39.34,75,58.92,126.26,58.94q171.49,0,343,0a142.53,142.53,0,0,0,19.92-1.2c31.36-4.43,59.46-16.43,83.52-37.21,28.3-24.44,46.14-55.17,53.34-91.79A156.75,156.75,0,0,0,660.15,121.31Zm-430.92-14c3,5.12,6.15,10.08,8.8,15.3.44.86-.9,3.31-2.05,4.18-16.49,12.36-33.1,24.56-49.66,36.83-7.74,5.74-15.53,11.42-23.13,17.35-2.65,2.07-4.78,2.25-7.59.44-8.67-5.57-17.56-10.81-26.12-16.55a8.79,8.79,0,0,1-3.34-5.94c-.42-6.56-.15-13.17-.15-21.37,8.73,5.48,16.07,10,23.3,14.62,10.34,6.67,10.12,6.48,19.83-.88,18.42-14,37.07-27.61,55.64-41.37C225.82,109.11,227,108.55,229.23,107.28Zm14.36,78.27c-6.72,22.21-20,39.71-40.13,51.5a87,87,0,0,1-119-30.1,88.59,88.59,0,0,1,30.7-122.6c35.66-21.06,80.85-10.71,98.15,8.44-4.54,3.38-8.9,7-13.66,9.95-1.33.83-4.13.42-5.72-.43C169.1,89,144.68,89.56,121.11,104.86,94.67,122,84.4,159.2,97.53,188.13c13.56,29.89,42.78,45.29,75.12,39.58,29.39-5.18,53.74-33.53,54.1-63.27.05-3.95,1.26-6.45,4.58-8.59,4.56-2.95,8.77-6.44,14-10.38A81.78,81.78,0,0,1,243.59,185.55ZM401.8,150.39c-4.48,16.85-17.65,23.9-33.59,26.07-10.8,1.47-21.82,1.4-33.89,2.09V213.8c-6.46,0-12.25.23-18-.22-.95-.08-2.38-3.12-2.39-4.8-.17-23.48-.12-46.95-.14-70.42,0-11.49.11-23-.19-34.46-.1-4.24,1.44-5.53,5.44-5.45,15,.29,30-.11,44.93.71,10.83.59,21.6,3.09,29.63,11.23C404.86,121.81,405.63,136,401.8,150.39Zm74.5,63.45a4.17,4.17,0,0,0-.5,0c-4.15-.1-9.17,1.17-12.17-.75-2.21-1.41-1.78-7-2.77-11.87C453.3,212.44,443.12,215.73,431,215c-13.06-.84-21.78-9.68-22.56-23.34s6-22.84,19.31-24.58c9.18-1.2,18.56-1.19,27.85-1.1,4.79,0,5.65-2,5.22-6-1-9.18-4.91-12.83-14.2-13.25-12.07-.56-22.83,2.09-31.76,12,0-6.82-.06-13.64.08-20.46,0-.75,1-1.62,1.72-2.19,10.34-8,41.51-8.25,52.32-.75,7.46,5.18,10.34,12.68,10.55,21,.46,18,.19,36,.31,54C479.86,213,478.83,214,476.3,213.84ZM568,142c-10.33,28.76-20.55,57.54-31.1,86.21-3,8.25-7.51,15.69-17,18.15a16.19,16.19,0,0,1-2.93.51c-14.82,1.15-17.72-2.45-15.7-19,4,.57,7.64,1.93,11,1.43,7.79-1.16,13.3-11.64,10.27-18.92q-14.73-35.44-29.63-70.8c-1-2.39-1.87-4.84-3-7.85,6.71,0,12.71-.32,18.62.22,1.54.14,3.42,2.71,4.17,4.56,6.27,15.39,12.29,30.87,18.43,46.31a47.85,47.85,0,0,0,2.4,4.36c2-5.6,3.72-10.16,5.21-14.8,3.83-11.85,7.65-23.7,11.25-35.62,1.13-3.76,2.9-5.51,7-5.16,4.45.37,8.94.08,14.44.08C570.11,135.58,569.11,138.8,568,142Z"/><path class="cls-1" d="M334.75,159.53v-42.8c12.11.83,23.91.85,35.42,2.67,8.88,1.41,13.09,9.55,12.45,20-.59,9.58-7,17.29-16.61,18.36C355.82,158.89,345.51,159,334.75,159.53Z"/><path class="cls-1" d="M449.07,177.92h6c5.66,0,7.14,1.33,5.54,6.7a21.12,21.12,0,0,1-5.85,9.33c-5.36,4.76-12.29,4.71-18.91,3.62-5.68-.93-8.27-5-8-10.75.23-4.83,2.75-7.25,8.89-8.06,4.09-.54,8.23-.74,12.34-1.09Z"/></g></g></svg>