<svg version="1.1" viewBox="0 0 512 469.69" xmlns="http://www.w3.org/2000/svg" xmlns:xlink="http://www.w3.org/1999/xlink">
    <path fill="currentColor"
          d="M489,14.93A63.7,63.7,0,0,0,436.57,1.1l-131.84,24A85.16,85.16,0,0,0,256,52.5,85.18,85.18,0,0,0,207.27,25L75.43,1A64,64,0,0,0,0,64V423.12l256,46.57,256-46.57V64A63.82,63.82,0,0,0,489,14.93ZM234.67,422.4l-192-34.86V64A21.33,21.33,0,0,1,64,42.68a22.09,22.09,0,0,1,3.8.34L199.64,67a42.67,42.67,0,0,1,35,42Zm234.66-34.91-192,34.91V109a42.67,42.67,0,0,1,35-42L444.18,43a21.31,21.31,0,0,1,25.15,21Z"/>
</svg>