<svg version="1.1" viewBox="0 0 512 358.48" xmlns="http://www.w3.org/2000/svg" xmlns:xlink="http://www.w3.org/1999/xlink">
    <path fill="currentColor"
          d="M501.45,56.09A64.15,64.15,0,0,0,456.33,11C416.26,0,256,0,256,0S95.73,0,55.67,10.55A65.46,65.46,0,0,0,10.54,56.09C0,96.16,0,179.24,0,179.24s0,83.51,10.54,123.15a64.18,64.18,0,0,0,45.13,45.13c40.49,11,200.33,11,200.33,11s160.26,0,200.33-10.54a64.16,64.16,0,0,0,45.13-45.13C512,262.75,512,179.66,512,179.66S512.42,96.16,501.45,56.09ZM205,256V102.48l133.27,76.76Z"/>
</svg>