<svg xmlns="http://www.w3.org/2000/svg" viewBox="0 0 512 335.45"><defs><style>.cls-1{fill:#73af00;}.cls-2{fill:#ff4b55;}.cls-3{fill:#f5f5f5;}</style></defs><g id="Слой_2" data-name="Слой 2"><g id="Layer_1" data-name="Layer 1"><path class="cls-1" d="M38.35,335.45h435.3A38.35,38.35,0,0,0,512,297.1V247.17H0V297.1A38.35,38.35,0,0,0,38.35,335.45Z"/><path class="cls-2" d="M512,38.35A38.35,38.35,0,0,0,473.65,0H38.35A38.35,38.35,0,0,0,0,38.35V247.17H512Z"/><path class="cls-3" d="M38.35,335.45H70.62V0H38.35A38.35,38.35,0,0,0,0,38.35V297.1A38.35,38.35,0,0,0,38.35,335.45Z"/><rect class="cls-2" x="58.68" y="231.44" width="3.11" height="8.75"/><rect class="cls-2" x="8.84" y="57.2" width="3.12" height="8.75"/><path class="cls-2" d="M8.83,83.52H10.4V88H12v4.38h4.66V88h1.57V83.52h1.53V77.69H18.18V73.25H16.61V68.94H12v4.31H10.4v4.44H8.83ZM12,79.15h1.54V76.23h1.6v2.92h1.52v2.91H15.09v3h-1.6v-3H12Z"/><rect class="cls-2" x="8.84" y="95.25" width="3.12" height="8.81"/><rect class="cls-2" x="33.75" y="57.2" width="3.12" height="8.75"/><path class="cls-2" d="M29.09,68.94v4.31H27.54v4.44H26v5.83h1.57V88h1.55v4.38h4.66V88h3.12v4.38h4.68V88h1.58V83.52h1.53V77.69H43.13V73.25H41.55V68.94H36.87v4.31H33.75V68.94Zm7.78,10.21h1.57V76.23H40v2.92h1.54v2.91H40v3H38.44v-3H36.87Zm-3.12,2.91H32.21v3H30.63v-3H29.09V79.15h1.54V76.23h1.58v2.92h1.54Z"/><rect class="cls-2" x="8.84" y="197.78" width="3.12" height="5.83"/><rect class="cls-2" x="8.84" y="131.89" width="3.12" height="5.83"/><rect class="cls-2" x="33.75" y="95.25" width="3.12" height="8.81"/><rect class="cls-2" x="8.84" y="231.44" width="3.12" height="8.75"/><polygon class="cls-2" points="11.96 167.79 11.96 167.72 11.96 163.35 8.83 163.35 8.83 167.72 8.83 167.79 8.83 172.16 11.96 172.16 11.96 167.79"/><rect class="cls-2" x="8.84" y="312.03" width="3.12" height="8.75"/><rect class="cls-2" x="58.68" y="312.03" width="3.11" height="8.75"/><rect class="cls-2" x="8.84" y="269.55" width="3.12" height="8.75"/><rect class="cls-2" x="33.75" y="312.03" width="3.12" height="8.75"/><path class="cls-2" d="M54,68.88v4.37H52.42v4.44H50.85v5.83h1.57v4.37H54v4.38h4.69V87.89h1.56V83.52h1.53V77.69H60.21V73.25H58.65V68.88Zm4.69,13.18H57.08V85H55.51V82.06H54v-3h1.55V76.23h1.57v2.85h1.57v3Z"/><rect class="cls-2" x="58.68" y="14.72" width="3.11" height="8.75"/><rect class="cls-2" x="8.84" y="14.72" width="3.12" height="8.75"/><rect class="cls-2" x="58.68" y="95.25" width="3.11" height="8.81"/><rect class="cls-2" x="58.68" y="57.2" width="3.11" height="8.75"/><rect class="cls-2" x="33.75" y="14.72" width="3.12" height="8.75"/><rect class="cls-2" x="21.31" y="290.04" width="3.09" height="7.29"/><polygon class="cls-2" points="29.09 167.79 29.09 167.72 29.09 163.35 25.97 163.35 25.97 167.72 25.97 167.79 25.97 172.16 29.09 172.16 29.09 167.79"/><path class="cls-2" d="M46.24,8.83v7.35H43.13v7.3H40v7.35H36.87v7.29H33.75V30.83H30.63V23.48H27.54v-7.3H24.43V8.83H21.31v7.35H18.18v7.3H15.09v7.35H12v7.29H8.83v7.36H12v7.29h3.14v7.35h3.09v7.36h3.13v7.29H24.4V67.48h3.14V60.12h3.09V52.77h3.12V45.48h3.13v7.29H40v7.35H43.1v7.36h3.14v7.29h3.11V67.48h3.11V60.12h3.12V52.77h3.11V45.48h3.1V38.12H58.7V30.83H55.58V23.48H52.46v-7.3H49.35V8.83ZM30.63,45.48H27.54v7.29H24.4v7.35H21.31V52.77H18.18V45.48H15.09V38.12h3.09V30.83h3.13V23.47H24.4v7.36h3.14v7.29h3.09v7.36ZM52.46,30.83v7.29h3.12v7.36H52.46v7.29H49.35v7.35H46.24V52.77h-3.1V45.48H40V38.12h3.13V30.83h3.1V23.48h3.11v7.35Z"/><rect class="cls-2" x="33.75" y="152.37" width="3.12" height="7.29"/><rect class="cls-2" x="33.75" y="175.83" width="3.12" height="7.29"/><polygon class="cls-2" points="41.55 167.72 41.55 167.79 41.55 172.16 44.66 172.16 44.66 167.79 44.66 167.72 44.66 163.35 41.55 163.35 41.55 167.72"/><path class="cls-2" d="M43.13,312v7.29h3.11v7.29h3.11v-7.29h3.11V312h3.12v-7.36H58.7v-7.35h3.09V290H58.68v-7.36h-3.1v-7.29H52.46V268H49.35v-7.29H46.24V268H43.1v7.36H40v7.29H36.87V290H33.75v-7.36H30.63v-7.29H27.54V268H24.4v-7.29H21.31V268H18.18v7.36H15.09v7.29H12V290H8.83v7.29H12v7.35h3.14V312h3.09v7.29h3.13v7.29h3.12v-7.29h3.11V312h3.09v-7.36h3.12v-7.35h3.13v7.35H40V312Zm-12.5-14.71H27.54v7.35H24.4V312H21.31v-7.36H18.18v-7.35H15.09V290h3.09v-7.36h3.13v-7.29H24.4v7.29h3.14V290h3.09v7.29ZM40,290h3.13v-7.36h3.1v-7.29h3.11v7.29h3.11V290h3.12v7.29H52.46v7.35H49.35V312H46.24v-7.36H43.13v-7.35H40Z"/><polygon class="cls-2" points="38.44 161.13 36.87 161.13 36.87 163.35 33.75 163.35 33.75 161.13 32.21 161.13 32.21 158.21 29.09 158.21 29.09 162.59 30.63 162.59 30.63 164.81 32.21 164.81 32.21 167.72 32.21 167.79 32.21 170.64 30.63 170.64 30.63 172.86 29.09 172.86 29.09 177.24 32.21 177.24 32.21 174.32 33.75 174.32 33.75 172.16 36.87 172.16 36.87 174.32 38.44 174.32 38.44 177.24 41.55 177.24 41.55 172.86 40.01 172.86 40.01 170.64 38.44 170.64 38.44 167.79 38.44 167.72 38.44 164.81 40.01 164.81 40.01 162.59 41.55 162.59 41.55 158.21 38.44 158.21 38.44 161.13"/><rect class="cls-2" x="46.24" y="38.12" width="3.11" height="7.36"/><rect class="cls-2" x="46.24" y="290.04" width="3.11" height="7.29"/><path class="cls-2" d="M16.61,266.57V262.2h1.57v-4.37h1.53v-5.9H18.18v-4.37H16.61v-4.38H12v4.38H10.4v4.37H8.83v5.9H10.4v4.37H12v4.37ZM12,253.39h1.57v-2.92h1.57v2.92h1.52v3H15.09v2.91H13.52v-2.91H12Z"/><rect class="cls-2" x="21.31" y="38.12" width="3.09" height="7.36"/><rect class="cls-2" x="58.68" y="269.55" width="3.11" height="8.75"/><path class="cls-2" d="M41.55,266.57V262.2h1.58v-4.37h1.53v-5.9H43.13v-4.37H41.55v-4.38H36.87v4.38H33.75v-4.38H29.09v4.38H27.54v4.37H26v5.9h1.57v4.37h1.55v4.37h4.66V262.2h3.12v4.37Zm-7.8-10.21H32.21v2.92H30.63v-2.92H29.09v-3h1.54v-2.91h1.58v2.91h1.54Zm3.12-3h1.57v-2.92H40v2.92h1.54v3H40v2.91H38.44v-2.91H36.87Z"/><rect class="cls-2" x="33.75" y="269.55" width="3.12" height="8.75"/><rect class="cls-2" x="33.75" y="231.44" width="3.12" height="8.75"/><rect class="cls-2" x="58.68" y="197.78" width="3.11" height="5.83"/><path class="cls-2" d="M58.65,266.57V262.2h1.56v-4.37h1.53V252H60.21v-4.44H58.65v-4.31H54v4.31H52.42V252H50.85v5.84h1.57v4.37H54v4.37ZM54,253.45h1.55v-2.92h1.57v2.92h1.57v2.92H57.08v3H55.51v-3H54Z"/><polygon class="cls-2" points="58.69 167.72 58.69 167.79 58.69 172.16 61.79 172.16 61.79 167.79 61.79 167.72 61.79 163.35 58.69 163.35 58.69 167.72"/><rect class="cls-2" x="58.68" y="131.89" width="3.11" height="5.83"/><path class="cls-2" d="M61.79,115.73H58.68v-7.29h-3.1v-7.36H52.46V93.79H49.35V86.44H46.24v7.35H43.1v7.29H40v7.36H36.87v7.29H33.75v-7.29H30.63v-7.36H27.54V93.79H24.4V86.44H21.31v7.35H18.18v7.29H15.06v7.36H12v7.29H8.83v7.35H12v7.36h3.11v7.29h3.12V145h3.13v-7.29H24.4v-7.29h3.14v-7.36H24.4v-8.81h3.14v5.9h3.09V131.9h1.58v7.23l-4.67.06V145H24.4v4.38H21.31v7.35H18.19V149.4H15.06V145H12v-4.37H8.83v13.19H12v5.89h3.11v5.08h3.12v5.83H15.06v5.2H12v5.83H8.83v13.19H12v-4.44h3.11v-4.37h3.12v-7.29h3.13v7.29H24.4v4.37h3.14v5.9l4.67.06v7.23H30.63v11.73H27.54v5.9H24.4v-8.88h3.14v-7.29H24.4v-7.29H21.31v-7.36H18.18v7.36H15.06v7.29H12v7.29H8.83v7.36H12V227h3.14v7.35h3.09v7.36h3.13V249H24.4v-7.29h3.14v-7.36h3.09V227h3.12v-7.29h3.13V227H40v7.36h3.13v7.35h3.1V249h3.11v-7.29h3.11v-7.35h3.12V227h3.11v-7.29h3.1v-7.36h-3.1v-7.29H55.58v-7.29H52.46v-7.36H49.35v7.36H46.24v7.29H43.1v7.29h3.14v8.88H43.1v-5.9H40V203.61H38.44v-7.29h4.7v-5.9h3.1v-4.37h3.11v-7.29h3.11v7.29h3.12v4.37H58.7v4.44h3.09V181.67H58.7v-5.83H55.58v-5.2H52.46v-5.83h3.12v-5.07H58.7v-5.9h3.09V140.65H58.7V145H55.58v4.37H52.46v7.35H49.35V149.4H46.24V145h-3.1v-5.84h-4.7V131.9H40V120.17H43.1v-5.9h3.14v8.81H43.1v7.36h3.14v7.29h3.11V145h3.11v-7.29h3.12v-7.29h3.1v-7.36h3.11v-7.35ZM43.13,153.84v5.89h3.11v5.08h3.11v5.83H46.24v5.2H43.13v5.83H38.44v6.91H36.88v3.3H33.75v-3.3H32.22v-6.91H27.54v-5.83H24.4v-5.2H21.31V164.8H24.4v-5.07h3.14v-5.9h4.67v-6.91h1.54v-3.36h3.12v3.3h1.57v7h4.69Z"/></g></g></svg>