<svg xmlns="http://www.w3.org/2000/svg" viewBox="0 0 512 335.45"><defs><style>.cls-1{fill:#82c3d2;}.cls-2{fill:#ffe15a;}</style></defs><g id="Слой_2" data-name="Слой 2"><g id="Layer_1" data-name="Layer 1"><path class="cls-1" d="M473.65,0H38.35A38.35,38.35,0,0,0,0,38.35V297.11a38.35,38.35,0,0,0,38.35,38.34h435.3A38.35,38.35,0,0,0,512,297.11V38.35A38.35,38.35,0,0,0,473.65,0Z"/><path class="cls-2" d="M59.52,40.17c-.8-3.38-1-4.63.52-6.14a1.9,1.9,0,1,0-2.68-2.68C54.28,34.42,55,37.61,55.81,41a5.69,5.69,0,0,0-6.28,1.5c-.66.85-2,3.22.46,7a1.9,1.9,0,1,0,3.2-2c-.91-1.43-.94-2.31-.68-2.63a2.15,2.15,0,0,1,2.2-.24,3.17,3.17,0,0,1,2.09,3.26,5.62,5.62,0,0,1-2.31,4.57,5.78,5.78,0,0,1-5.21.83,5.93,5.93,0,0,1-3.85-5.81,14.06,14.06,0,0,1,1.19-5.65c.12-.26,3-6.26,3.76-8.49,1.48-4.42,0-6.65-1.05-7.58a4.73,4.73,0,0,0-5.09-.8,4.14,4.14,0,0,0-.7.44,4.45,4.45,0,0,0-5.8.36c-1,.93-2.52,3.16-1.05,7.58.75,2.23,3.64,8.23,3.74,8.43a14.24,14.24,0,0,1,1.21,5.71,5.93,5.93,0,0,1-3.85,5.81,5.78,5.78,0,0,1-5.21-.83,5.65,5.65,0,0,1-2.31-4.57,3.18,3.18,0,0,1,2.1-3.26,2.15,2.15,0,0,1,2.2.24c.25.32.23,1.2-.68,2.63a1.89,1.89,0,1,0,3.19,2c2.42-3.8,1.13-6.17.46-7A5.67,5.67,0,0,0,31.26,41c.8-3.38,1.53-6.57-1.54-9.64A1.9,1.9,0,1,0,27,34c1.52,1.51,1.32,2.76.52,6.14a31.77,31.77,0,0,0-1.08,7.67,9.46,9.46,0,0,0,2,5.69h-.06a1.9,1.9,0,1,0,0,3.79h.06a9.46,9.46,0,0,0-2,5.68,31.78,31.78,0,0,0,1.08,7.68c.8,3.38,1,4.63-.52,6.14a1.9,1.9,0,1,0,2.68,2.68c3.07-3.07,2.34-6.26,1.54-9.64a5.68,5.68,0,0,0,6.28-1.49c.67-.85,2-3.22-.46-7a1.89,1.89,0,1,0-3.19,2c.91,1.43.93,2.31.68,2.63a2.15,2.15,0,0,1-2.2.24A3.18,3.18,0,0,1,30.27,63a5.65,5.65,0,0,1,2.31-4.57,5.79,5.79,0,0,1,5.21-.83,5.93,5.93,0,0,1,3.85,5.81,14.07,14.07,0,0,1-1.21,5.71L28,97a17.7,17.7,0,0,0-1.54,7.24,10.11,10.11,0,0,0,3.79,8,10.11,10.11,0,0,0-3.79,8A17.7,17.7,0,0,0,28,127.5l12.41,27.92a14.24,14.24,0,0,1,1.21,5.71,5.91,5.91,0,0,1-3.85,5.8,5.75,5.75,0,0,1-5.21-.82,5.63,5.63,0,0,1-2.31-4.57,3.17,3.17,0,0,1,2.09-3.26,2.16,2.16,0,0,1,2.21.24c.25.32.22,1.2-.68,2.63a1.89,1.89,0,1,0,3.19,2c2.42-3.8,1.13-6.17.46-7a5.71,5.71,0,0,0-6.28-1.5c.8-3.37,1.53-6.56-1.54-9.63A1.9,1.9,0,1,0,27,147.72c1.51,1.51,1.32,2.76.52,6.14a31.77,31.77,0,0,0-1.08,7.67,9.46,9.46,0,0,0,2,5.69h-.06a1.9,1.9,0,1,0,0,3.79h.06a9.46,9.46,0,0,0-2,5.68,31.62,31.62,0,0,0,1.08,7.67c.8,3.39,1,4.63-.52,6.15a1.9,1.9,0,0,0,0,2.68,1.91,1.91,0,0,0,2.68,0c3.07-3.07,2.34-6.26,1.54-9.64a5.68,5.68,0,0,0,6.28-1.49c.67-.85,2-3.23-.46-7a1.9,1.9,0,0,0-2.62-.58,1.88,1.88,0,0,0-.57,2.61c.91,1.43.93,2.31.68,2.64a2.14,2.14,0,0,1-2.21.23,3.16,3.16,0,0,1-2.09-3.25,5.65,5.65,0,0,1,2.31-4.57,5.79,5.79,0,0,1,5.21-.83,5.92,5.92,0,0,1,3.85,5.81,14.16,14.16,0,0,1-1.21,5.7L28,210.73A17.7,17.7,0,0,0,26.48,218a10.11,10.11,0,0,0,3.79,8,10.13,10.13,0,0,0-3.79,8A17.7,17.7,0,0,0,28,241.19l12.41,27.92a14.24,14.24,0,0,1,1.21,5.71,5.92,5.92,0,0,1-3.85,5.81,5.78,5.78,0,0,1-5.21-.83,5.62,5.62,0,0,1-2.31-4.57A3.17,3.17,0,0,1,32.36,272a2.16,2.16,0,0,1,2.21.24c.25.32.22,1.2-.68,2.63a1.89,1.89,0,1,0,3.19,2c2.42-3.8,1.13-6.17.46-7a5.69,5.69,0,0,0-6.28-1.49c.8-3.38,1.53-6.57-1.54-9.64A1.9,1.9,0,0,0,27,261.41c1.51,1.51,1.32,2.76.52,6.14a31.77,31.77,0,0,0-1.08,7.67,9.53,9.53,0,0,0,3.8,7.58,9.55,9.55,0,0,0-3.8,7.58,31.78,31.78,0,0,0,1.08,7.68c.8,3.38,1,4.63-.52,6.14a1.9,1.9,0,1,0,2.68,2.68c3.07-3.07,2.34-6.26,1.54-9.64a5.68,5.68,0,0,0,6.28-1.49c.67-.85,2-3.22-.46-7a1.89,1.89,0,1,0-3.19,2c.91,1.42.93,2.31.68,2.63a2.17,2.17,0,0,1-2.21.23,3.16,3.16,0,0,1-2.09-3.25,5.65,5.65,0,0,1,2.31-4.57,5.79,5.79,0,0,1,5.21-.83,5.92,5.92,0,0,1,3.85,5.81,14.22,14.22,0,0,1-1.18,5.65c-.13.25-3,6.25-3.77,8.49-1.47,4.42,0,6.65,1.05,7.57a4.65,4.65,0,0,0,3.15,1.22,4.86,4.86,0,0,0,1.94-.41,5.64,5.64,0,0,0,.71-.44,4.14,4.14,0,0,0,.7.44,4.93,4.93,0,0,0,1.94.41,4.69,4.69,0,0,0,3.16-1.22c1-.92,2.52-3.15,1-7.57-.74-2.24-3.64-8.24-3.74-8.44a14.16,14.16,0,0,1-1.21-5.7A5.92,5.92,0,0,1,49.28,285a5.78,5.78,0,0,1,5.21.83,5.62,5.62,0,0,1,2.31,4.57,3.16,3.16,0,0,1-2.09,3.25,2.15,2.15,0,0,1-2.2-.23c-.26-.33-.23-1.21.68-2.64a1.89,1.89,0,0,0-3.2-2c-2.42,3.79-1.12,6.17-.46,7a5.69,5.69,0,0,0,6.28,1.49c-.79,3.38-1.52,6.57,1.55,9.64A1.9,1.9,0,0,0,60,304.2c-1.52-1.52-1.32-2.76-.52-6.15a31.67,31.67,0,0,0,1.07-7.67,9.51,9.51,0,0,0-3.8-7.58,9.51,9.51,0,0,0,3.8-7.58,31.82,31.82,0,0,0-1.07-7.67c-.8-3.38-1-4.63.52-6.15a1.9,1.9,0,1,0-2.68-2.68c-3.07,3.08-2.34,6.27-1.55,9.64a5.68,5.68,0,0,0-6.28,1.5c-.66.84-2,3.22.47,7a1.89,1.89,0,1,0,3.19-2c-.91-1.43-.94-2.31-.68-2.63a2.15,2.15,0,0,1,2.2-.24,3.16,3.16,0,0,1,2.09,3.25,5.65,5.65,0,0,1-2.31,4.58,5.75,5.75,0,0,1-5.21.82,5.93,5.93,0,0,1-3.85-5.8,14,14,0,0,1,1.22-5.71l12.4-27.92a17.71,17.71,0,0,0,1.54-7.25,10.13,10.13,0,0,0-3.78-8,10.15,10.15,0,0,0,3.78-8,17.78,17.78,0,0,0-1.54-7.25l-12.4-27.91a14.08,14.08,0,0,1-1.22-5.71,5.93,5.93,0,0,1,3.85-5.81,5.78,5.78,0,0,1,5.21.83,5.62,5.62,0,0,1,2.31,4.57,3.15,3.15,0,0,1-2.09,3.25,2.13,2.13,0,0,1-2.2-.23c-.26-.32-.23-1.21.68-2.63A1.89,1.89,0,1,0,50,175c-2.43,3.8-1.13,6.17-.47,7a5.69,5.69,0,0,0,6.28,1.49c-.79,3.38-1.52,6.57,1.55,9.64A1.9,1.9,0,1,0,60,190.51c-1.52-1.52-1.32-2.76-.52-6.15a31.67,31.67,0,0,0,1.07-7.67,9.45,9.45,0,0,0-2-5.68h.06a1.9,1.9,0,0,0,0-3.79h-.06a9.46,9.46,0,0,0,2-5.69,31.82,31.82,0,0,0-1.07-7.67c-.8-3.38-1-4.63.52-6.15A1.9,1.9,0,1,0,57.36,145c-3.07,3.08-2.34,6.27-1.54,9.64a5.7,5.7,0,0,0-6.28,1.5c-.67.84-2,3.22.46,7a1.89,1.89,0,1,0,3.19-2c-.91-1.43-.94-2.31-.68-2.63a2.15,2.15,0,0,1,2.2-.24,3.16,3.16,0,0,1,2.09,3.25,5.64,5.64,0,0,1-2.31,4.58,5.78,5.78,0,0,1-5.21.82,5.93,5.93,0,0,1-3.85-5.8,14,14,0,0,1,1.22-5.71L59.06,127.5a17.7,17.7,0,0,0,1.53-7.25,10.13,10.13,0,0,0-3.78-8,10.15,10.15,0,0,0,3.78-8A17.93,17.93,0,0,0,59.06,97L46.65,69.12a14.08,14.08,0,0,1-1.22-5.71,5.93,5.93,0,0,1,3.85-5.81,5.78,5.78,0,0,1,5.21.83A5.62,5.62,0,0,1,56.8,63a3.15,3.15,0,0,1-2.09,3.25,2.13,2.13,0,0,1-2.2-.23c-.26-.32-.23-1.21.68-2.63a1.89,1.89,0,1,0-3.19-2c-2.42,3.79-1.13,6.17-.46,7a5.68,5.68,0,0,0,6.28,1.49c-.8,3.38-1.53,6.57,1.54,9.64a1.91,1.91,0,0,0,2.68,0,1.9,1.9,0,0,0,0-2.68c-1.52-1.52-1.32-2.76-.52-6.15A31.67,31.67,0,0,0,60.59,63a9.45,9.45,0,0,0-2-5.68h.06a1.9,1.9,0,1,0,0-3.79h-.06a9.46,9.46,0,0,0,2-5.69A32.33,32.33,0,0,0,59.52,40.17ZM40.29,32.1c-.68-2-.44-3.17,0-3.58a1,1,0,0,1,1-.14.51.51,0,0,1,.34.52,1.9,1.9,0,0,0,3.79,0,.51.51,0,0,1,.34-.52,1,1,0,0,1,1,.14c.45.41.68,1.56,0,3.58-.49,1.46-2.26,5.28-3.25,7.34C42.57,37.42,40.78,33.57,40.29,32.1Zm3.25,78.18a9.43,9.43,0,0,0,1.9,2,9.43,9.43,0,0,0-1.9,2,9.48,9.48,0,0,0-1.91-2A9.48,9.48,0,0,0,43.54,110.28Zm0,113.69a9.43,9.43,0,0,0,1.9,2,9.43,9.43,0,0,0-1.9,2,9.48,9.48,0,0,0-1.91-2A9.48,9.48,0,0,0,43.54,224Zm3.25,82.16c.67,2,.44,3.17,0,3.58a1,1,0,0,1-1,.14.51.51,0,0,1-.34-.51,1.9,1.9,0,1,0-3.79,0,.51.51,0,0,1-.34.51,1,1,0,0,1-1-.14c-.44-.4-.68-1.56,0-3.58.49-1.46,2.27-5.27,3.25-7.35C44.5,300.81,46.29,304.66,46.79,306.13Zm-1.36-23.32a8.9,8.9,0,0,0-1.89,2,9.37,9.37,0,0,0-1.89-2,9.87,9.87,0,0,0,1.89-2A9.35,9.35,0,0,0,45.43,282.81Zm10.16-43.16L43.54,266.77,31.48,239.65a14.16,14.16,0,0,1-1.21-5.7,5.92,5.92,0,0,1,3.85-5.81,5.78,5.78,0,0,1,5.21.83,5.62,5.62,0,0,1,2.31,4.57,3.16,3.16,0,0,1-2.09,3.25,2.14,2.14,0,0,1-2.2-.23c-.26-.33-.23-1.21.68-2.64a1.89,1.89,0,0,0-3.2-2c-2.42,3.79-1.12,6.17-.46,7a5.72,5.72,0,0,0,6.42,1.46,7,7,0,0,0,.85-.36v4.79h0a1.9,1.9,0,0,0-3.79.11c0,1.24.87,3.38,3.79,4v3.54a1.9,1.9,0,0,0,3.79,0V249c2.93-.66,3.79-2.8,3.79-4a1.94,1.94,0,0,0-1.89-2,1.84,1.84,0,0,0-1.89,1.83V240a5.15,5.15,0,0,0,.85.36,5.71,5.71,0,0,0,6.42-1.46c.67-.85,2-3.22-.46-7a1.89,1.89,0,1,0-3.19,2c.9,1.43.93,2.31.68,2.63a2.16,2.16,0,0,1-2.21.24,3.17,3.17,0,0,1-2.09-3.26A5.62,5.62,0,0,1,47.74,229a5.79,5.79,0,0,1,5.21-.83A5.92,5.92,0,0,1,56.8,234,14.16,14.16,0,0,1,55.59,239.65Zm0-27.38A14.16,14.16,0,0,1,56.8,218,5.92,5.92,0,0,1,53,223.78a5.78,5.78,0,0,1-5.21-.83,5.62,5.62,0,0,1-2.31-4.57,3.16,3.16,0,0,1,2.09-3.25,2.17,2.17,0,0,1,2.21.23c.25.33.22,1.21-.68,2.64a1.89,1.89,0,1,0,3.19,2c2.42-3.79,1.13-6.17.46-7a5.72,5.72,0,0,0-6.42-1.46,7.72,7.72,0,0,0-.85.36v-4.79h0a1.9,1.9,0,0,0,3.79-.11c0-1.23-.86-3.38-3.79-4v-3.54a1.9,1.9,0,0,0-3.79,0V203c-2.93.66-3.79,2.81-3.79,4a1.94,1.94,0,0,0,1.89,2,1.84,1.84,0,0,0,1.89-1.83h0v4.78a6.18,6.18,0,0,0-.85-.36A5.72,5.72,0,0,0,34.37,213c-.67.85-2,3.23.46,7a1.89,1.89,0,0,0,3.2-2c-.91-1.43-.94-2.31-.69-2.64a2.17,2.17,0,0,1,2.21-.23,3.15,3.15,0,0,1,2.09,3.25A5.62,5.62,0,0,1,39.33,223a5.78,5.78,0,0,1-5.21.83A5.92,5.92,0,0,1,30.27,218a14.16,14.16,0,0,1,1.21-5.7l12.05-27.12ZM45.43,169.12a8.9,8.9,0,0,0-1.89,2,9.37,9.37,0,0,0-1.89-2,9.67,9.67,0,0,0,1.89-2A9.16,9.16,0,0,0,45.43,169.12ZM55.59,126,43.54,153.08,31.48,126a14.16,14.16,0,0,1-1.21-5.7,5.92,5.92,0,0,1,3.85-5.81,5.78,5.78,0,0,1,5.21.83,5.62,5.62,0,0,1,2.31,4.57,3.16,3.16,0,0,1-2.09,3.25,2.12,2.12,0,0,1-2.2-.23c-.26-.33-.23-1.21.68-2.64a1.89,1.89,0,0,0-3.2-2c-2.42,3.79-1.12,6.17-.46,7a5.73,5.73,0,0,0,6.42,1.46,7,7,0,0,0,.85-.36v4.79h0a1.9,1.9,0,0,0-3.79.11c0,1.23.87,3.38,3.79,4v3.54a1.9,1.9,0,0,0,3.79,0v-3.54c2.93-.66,3.79-2.81,3.79-4a1.94,1.94,0,0,0-1.89-2,1.83,1.83,0,0,0-1.89,1.83h0v-4.78a7.72,7.72,0,0,0,.85.36,5.71,5.71,0,0,0,6.42-1.47c.67-.84,2-3.22-.46-7a1.89,1.89,0,1,0-3.19,2c.9,1.43.93,2.31.68,2.64a2.14,2.14,0,0,1-2.21.23,3.16,3.16,0,0,1-2.09-3.25,5.65,5.65,0,0,1,2.31-4.58,5.81,5.81,0,0,1,5.21-.82,5.92,5.92,0,0,1,3.85,5.81A14.16,14.16,0,0,1,55.59,126Zm0-27.38a14.16,14.16,0,0,1,1.21,5.7A5.92,5.92,0,0,1,53,110.09a5.78,5.78,0,0,1-5.21-.83,5.62,5.62,0,0,1-2.31-4.57,3.15,3.15,0,0,1,2.09-3.25,2.14,2.14,0,0,1,2.21.23c.25.32.22,1.21-.68,2.63a1.89,1.89,0,1,0,3.19,2c2.42-3.79,1.13-6.17.46-7a5.72,5.72,0,0,0-6.42-1.46,6.18,6.18,0,0,0-.85.36V93.43h0a1.9,1.9,0,0,0,3.79-.11c0-1.24-.86-3.38-3.79-4V85.74a1.9,1.9,0,0,0-3.79,0v3.54c-2.93.66-3.79,2.8-3.79,4a1.94,1.94,0,0,0,1.89,2,1.84,1.84,0,0,0,1.89-1.83v4.77a5.15,5.15,0,0,0-.85-.36,5.72,5.72,0,0,0-6.42,1.46c-.67.85-2,3.22.46,7a1.9,1.9,0,1,0,3.2-2c-.91-1.43-.94-2.31-.69-2.63a2.16,2.16,0,0,1,2.21-.24,3.17,3.17,0,0,1,2.09,3.26,5.62,5.62,0,0,1-2.31,4.57,5.78,5.78,0,0,1-5.21.83,5.92,5.92,0,0,1-3.85-5.81,14.24,14.24,0,0,1,1.21-5.71L43.53,71.46ZM41.65,55.42a9.37,9.37,0,0,0,1.89-2,9.31,9.31,0,0,0,1.88,2,9.36,9.36,0,0,0-1.88,2A9.41,9.41,0,0,0,41.65,55.42Z"/><circle class="cls-2" cx="270.74" cy="146.75" r="45.61" transform="translate(82.51 390.49) rotate(-80.78)"/><path class="cls-2" d="M274.17,88.61a3.42,3.42,0,0,1-6.84,0c0-1.89,3.42-10.26,3.42-10.26S274.17,86.72,274.17,88.61Z"/><path class="cls-2" d="M267.33,204.91a3.42,3.42,0,0,1,6.84,0c0,1.89-3.42,10.26-3.42,10.26S267.33,206.8,267.33,204.91Z"/><path class="cls-2" d="M328.9,150.18a3.42,3.42,0,1,1,0-6.84c1.89,0,10.26,3.42,10.26,3.42S330.79,150.18,328.9,150.18Z"/><path class="cls-2" d="M212.6,143.34a3.42,3.42,0,1,1,0,6.84c-1.89,0-10.27-3.42-10.27-3.42S210.71,143.34,212.6,143.34Z"/><path class="cls-2" d="M314.29,108.06a3.42,3.42,0,0,1-4.84-4.84c1.33-1.34,9.67-4.84,9.67-4.84S315.62,106.72,314.29,108.06Z"/><path class="cls-2" d="M227.21,185.46a3.42,3.42,0,0,1,4.84,4.84c-1.34,1.33-9.68,4.83-9.68,4.83S225.87,186.8,227.21,185.46Z"/><path class="cls-2" d="M309.45,190.3a3.42,3.42,0,1,1,4.84-4.84c1.33,1.33,4.83,9.67,4.83,9.67S310.78,191.63,309.45,190.3Z"/><path class="cls-2" d="M232.05,103.22a3.42,3.42,0,0,1-4.84,4.84c-1.34-1.34-4.84-9.68-4.84-9.68S230.71,101.89,232.05,103.22Z"/><path class="cls-2" d="M251.65,91.72a3.42,3.42,0,1,1-6.32,2.62c-.72-1.75-.76-10.79-.76-10.79S250.93,90,251.65,91.72Z"/><path class="cls-2" d="M289.84,201.79a3.42,3.42,0,1,1,6.32-2.61c.72,1.74.77,10.79.77,10.79S290.56,203.54,289.84,201.79Z"/><path class="cls-2" d="M325.78,127.67a3.43,3.43,0,0,1-2.62-6.33c1.75-.72,10.79-.76,10.79-.76S327.53,126.94,325.78,127.67Z"/><path class="cls-2" d="M215.71,165.85a3.42,3.42,0,1,1,2.62,6.32c-1.75.73-10.79.77-10.79.77S214,166.58,215.71,165.85Z"/><path class="cls-2" d="M296.16,94.34a3.42,3.42,0,0,1-6.32-2.61c.72-1.75,7.09-8.18,7.09-8.18S296.88,92.6,296.16,94.34Z"/><path class="cls-2" d="M245.33,199.18a3.42,3.42,0,1,1,6.32,2.61c-.72,1.75-7.08,8.17-7.08,8.17S244.61,200.92,245.33,199.18Z"/><path class="cls-2" d="M323.16,172.17a3.42,3.42,0,0,1,2.62-6.32c1.74.73,8.17,7.09,8.17,7.09S324.91,172.9,323.16,172.17Z"/><path class="cls-2" d="M218.33,121.34a3.43,3.43,0,0,1-2.62,6.33c-1.74-.73-8.17-7.09-8.17-7.09S216.59,120.62,218.33,121.34Z"/><path class="cls-2" d="M262.76,89.06a3.42,3.42,0,1,1-6.71,1.33c-.37-1.85,1.35-10.73,1.35-10.73S262.39,87.2,262.76,89.06Z"/><path class="cls-2" d="M278.74,204.46a3.42,3.42,0,1,1,6.71-1.33c.37,1.85-1.36,10.73-1.36,10.73S279.11,206.31,278.74,204.46Z"/><path class="cls-2" d="M328.45,138.77a3.42,3.42,0,0,1-1.34-6.71c1.86-.37,10.74,1.35,10.74,1.35S330.3,138.4,328.45,138.77Z"/><path class="cls-2" d="M213,154.75a3.42,3.42,0,1,1,1.34,6.71c-1.85.37-10.73-1.35-10.73-1.35S211.19,155.12,213,154.75Z"/><path class="cls-2" d="M305.9,100.31a3.42,3.42,0,0,1-5.69-3.8c1.05-1.57,8.55-6.64,8.55-6.64S307,98.74,305.9,100.31Z"/><path class="cls-2" d="M235.6,193.21a3.42,3.42,0,0,1,5.68,3.8c-1.05,1.57-8.54,6.63-8.54,6.63S234.55,194.78,235.6,193.21Z"/><path class="cls-2" d="M317.2,181.91a3.42,3.42,0,0,1,3.8-5.69c1.57,1.05,6.63,8.55,6.63,8.55S318.77,183,317.2,181.91Z"/><path class="cls-2" d="M224.3,111.61a3.42,3.42,0,1,1-3.81,5.68c-1.57-1.05-6.63-8.54-6.63-8.54S222.73,110.56,224.3,111.61Z"/><path class="cls-2" d="M241.28,96.51a3.42,3.42,0,1,1-5.68,3.8c-1-1.57-2.86-10.43-2.86-10.43S240.23,94.94,241.28,96.51Z"/><path class="cls-2" d="M300.21,197a3.42,3.42,0,0,1,5.69-3.8c1.05,1.57,2.85,10.43,2.85,10.43S301.26,198.58,300.21,197Z"/><path class="cls-2" d="M321,117.3a3.42,3.42,0,1,1-3.8-5.69c1.57-1,10.43-2.86,10.43-2.86S322.57,116.25,321,117.3Z"/><path class="cls-2" d="M220.49,176.22a3.42,3.42,0,0,1,3.81,5.69c-1.57,1.05-10.44,2.86-10.44,2.86S218.92,177.27,220.49,176.22Z"/><path class="cls-2" d="M285.45,90.39a3.42,3.42,0,1,1-6.71-1.33c.37-1.85,5.35-9.4,5.35-9.4S285.82,88.54,285.45,90.39Z"/><path class="cls-2" d="M256.05,203.13a3.42,3.42,0,1,1,6.71,1.33c-.37,1.85-5.36,9.4-5.36,9.4S255.68,205,256.05,203.13Z"/><path class="cls-2" d="M327.11,161.46a3.42,3.42,0,0,1,1.34-6.71c1.85.37,9.4,5.36,9.4,5.36S329,161.83,327.11,161.46Z"/><path class="cls-2" d="M214.38,132.06a3.42,3.42,0,0,1-1.33,6.71c-1.86-.37-9.4-5.36-9.4-5.36S212.53,131.69,214.38,132.06Z"/><path class="cls-2" d="M378,158.76a2.61,2.61,0,0,0-3.42,1.41h0s-.07.15-.15.36c-2,4.62-6.07,11.37-10.2,17.72,3.85-12.38,7.36-25.61,7.61-26.54a2.62,2.62,0,0,0-5.05-1.38c-1.8,6.44-5.47,14.9-8.85,22.07.62-8,.74-15.39.74-15.93a2.63,2.63,0,0,0-2.5-2.65,2.74,2.74,0,0,0-2.72,2.42c-3.35,46.07-47.68,66.68-52,68.58a107.5,107.5,0,0,0-22.32,4.72c-1.08.38-2,.75-2.92,1.13a2.66,2.66,0,0,0-1.09-.18c-29.31,2.12-52.67-9.9-69.46-35.65A125.84,125.84,0,0,1,189,154.75a2.62,2.62,0,0,0-5.14,1,122.08,122.08,0,0,0,6.66,21.22A110.09,110.09,0,0,1,178,148.07a2.11,2.11,0,0,0-.16-.34,2.49,2.49,0,0,0-.25-.52,2.35,2.35,0,0,0-.26-.29,2.55,2.55,0,0,0-.46-.41,1.87,1.87,0,0,0-.32-.15,2.39,2.39,0,0,0-.6-.22,2.26,2.26,0,0,0-.45,0,3.7,3.7,0,0,0-.47,0l-.1,0h-.1a2.48,2.48,0,0,0-.37.17,2.56,2.56,0,0,0-.47.23,2,2,0,0,0-.37.34,3.7,3.7,0,0,0-.33.36,3.82,3.82,0,0,0-.21.46,3.61,3.61,0,0,0-.17.46,2.26,2.26,0,0,0,0,.52,3,3,0,0,0,0,.42c0,.06,0,.13,0,.19h0v0c1.62,9.53,5.48,19.41,9,26.95-5.53-6.29-10.16-13.53-11.8-17.81a2.3,2.3,0,0,0-.21-.33,2.26,2.26,0,0,0-.31-.49,2.42,2.42,0,0,0-.31-.25,2.49,2.49,0,0,0-.5-.35,3.25,3.25,0,0,0-.37-.11,2.89,2.89,0,0,0-.58-.14,2.12,2.12,0,0,0-.49.06,2.28,2.28,0,0,0-.45,0l-.07,0-.09,0a22.56,22.56,0,0,0-.8.51,2.08,2.08,0,0,0-.32.4,2.55,2.55,0,0,0-.28.39,3.51,3.51,0,0,0-.15.49,2.57,2.57,0,0,0-.11.48,2.2,2.2,0,0,0,.06.5,1.71,1.71,0,0,0,0,.45c2.85,9.18,9.69,20.1,15.05,27.79a60.15,60.15,0,0,1-8.7-8.29c-.11-.12-.21-.24-.31-.37a2.62,2.62,0,0,0-4.06,3.3c0,.06.25.31.58.69A158.62,158.62,0,0,0,179.8,196l-5.3-2.26a2.61,2.61,0,0,0-2.59,4.5,149.2,149.2,0,0,0,18,11.53,21,21,0,0,1-2.67-.08,2.61,2.61,0,0,0-1.19,5c.2.08,2.68,1.11,5.73,2.19a2.62,2.62,0,0,0-.32,4.69,78.18,78.18,0,0,0,8.55,4.16,2.89,2.89,0,0,0-.3.61,2.62,2.62,0,0,0,1,3c.79.54,18.55,12.6,39.3,12.6,1.36,0,2.74-.05,4.12-.16a2.62,2.62,0,0,0,2.4-2.82,2.59,2.59,0,0,0-2.81-2.4c-13,1.07-25.59-3.83-33.06-7.57a14.83,14.83,0,0,0,1.69-.51,2.62,2.62,0,0,0-.93-5c-3-.06-7.23-1.53-10.85-3.12a12.89,12.89,0,0,0,2.24-1.39,2.61,2.61,0,0,0-1.26-4.59,34.32,34.32,0,0,1-3.94-1,5.42,5.42,0,0,0,2.24-2.16,2.62,2.62,0,0,0-1.79-3.73,14.07,14.07,0,0,1-2.29-.72,2.38,2.38,0,0,0,.4-.53,2.61,2.61,0,0,0-.64-3.39c-.05,0-2.08-1.63-5.16-4.29a2.51,2.51,0,0,0,1.23-1,2.6,2.6,0,0,0-.11-3.12c-.05-.07-2.09-2.63-4.89-6.51.93.72,1.85,1.45,2.77,2a2.72,2.72,0,0,0,1.42.41,2.65,2.65,0,0,0,1.82-.73,2.51,2.51,0,0,0,.49-.68,38.59,38.59,0,0,0,5,4.55,2.27,2.27,0,0,0,.76.25c.74,1.25,1.51,2.49,2.32,3.74,15.89,24.44,38.28,37.53,65.14,38.31a55.06,55.06,0,0,1-9.41,4.71c-.93.36-1.74.73-2.57,1.09a2.45,2.45,0,0,0-1.08.47c-7.42,3.43-10.5,6.83-11.74,9.2a4.88,4.88,0,0,0,1.35,6,2.62,2.62,0,0,0,1.67.59,2.82,2.82,0,0,0,1.21-.28,2.7,2.7,0,0,0,1.5-2.47c.1-.11.56-.49,2-.54a54.23,54.23,0,0,1,5.78.35c2.43.2,5.34.43,8.44.59l-4.19,4.88a2.6,2.6,0,0,0-.37,2.83,2.63,2.63,0,0,0,2.44,1.49c2.07-.08,3.47-.12,4.4-.14a4.39,4.39,0,0,0,2.42,1.64,6.46,6.46,0,0,0,4.94-1.11,6.6,6.6,0,0,0,2.86,1.16,8.34,8.34,0,0,0,4.74-.88,6.34,6.34,0,0,0,3.45,1h0a8.63,8.63,0,0,0,5.09-2,6.55,6.55,0,0,0,3,.92,7.77,7.77,0,0,0,4.46-1.33,10.34,10.34,0,0,0,9-2.92,4.62,4.62,0,0,0,2.6.66,6,6,0,0,0,4.2-2.21c4.18.5,7.18-.27,8.91-2.33a6.27,6.27,0,0,0,1.44-3.53c11.59-.06,12.64-6.39,12.72-7.18a2.62,2.62,0,0,0-2.44-2.89l-30.39-1.82a2.59,2.59,0,0,0-2.71,2,8.21,8.21,0,0,1-2.14,3.49c-2.18,2.09-5.7,3.19-9.52,3.77a2.39,2.39,0,0,0-.17-1,2.62,2.62,0,0,0-3.38-1.5c-6.27,2.43-16.43,2.13-24.38,1.57a27.75,27.75,0,0,1,3.86-2.62,2.63,2.63,0,0,0,1.31-2.78,2.52,2.52,0,0,0-1.44-1.74c2.21-1.11,4-2.19,5.74-3.24a49.53,49.53,0,0,1,10.94-5.33,104.74,104.74,0,0,1,21.49-4.5,2.5,2.5,0,0,0,.76-.19c.41-.16,32.76-13.72,48-45-.2.95-.41,1.81-.65,2.57a2.62,2.62,0,0,0,4.28,2.69,38.14,38.14,0,0,1-2.55,5.72,2.62,2.62,0,0,0,1.66,3.9c-1.18,1.73-2.37,3.36-3.56,4.86a2.61,2.61,0,0,0,.08,3.36,65.78,65.78,0,0,1-5.25,5,2.62,2.62,0,0,0-.78,3,17.61,17.61,0,0,1-3.18,1.53,2.62,2.62,0,0,0-.76,4.63c-1.6.42-3.35.84-5.25,1.22a2.61,2.61,0,0,0-.79,4.83,25.27,25.27,0,0,0,2.34,1.14c-5.06,2-14.09,4.7-28.92,6.16a2.62,2.62,0,0,0-2.34,2.86,2.64,2.64,0,0,0,2.86,2.35c28.14-2.79,36.83-9.83,37.19-10.13a2.61,2.61,0,0,0-.48-4.32c9-2.83,12.85-6,13-6.13a2.61,2.61,0,0,0-2.62-4.45,10.76,10.76,0,0,1-1.54.39c6-4.13,12.44-9,15.26-11.25.49-.37.94-.72,1.34-1a2.62,2.62,0,0,0-3.3-4.06l-1.28,1c-1.3,1-3,2.06-4.77,3.18,6.85-7.78,13.74-16.21,15.71-18.63l.53-.66a2.61,2.61,0,0,0-4.07-3.28h0l-.64.79c-2.06,2.52-4.24,5-6.38,7.24,7-12.65,12.26-25.09,13-26.94l.09-.2A2.6,2.6,0,0,0,378,158.76ZM255.44,246.93l.71.09A12.17,12.17,0,0,0,254,249.7c-1.25-.1-2.37-.18-3.26-.22A37.86,37.86,0,0,1,255.44,246.93Z"/></g></g></svg>