<svg xmlns="http://www.w3.org/2000/svg" viewBox="0 0 398.28 188.51"><defs><style>.cls-1{fill:#2b664a;}.cls-2{fill:#fff;}</style></defs><g id="Слой_2" data-name="Слой 2"><g id="Режим_изоляции" data-name="Режим изоляции"><path class="cls-1" d="M234.79,121.19h12c7.26,0,12.25,3.72,12.25,10.08v.09c0,6.93-6,10.51-12.86,10.51h-8.91v12.3h-2.45Zm11.5,18.42c6.13,0,10.27-3.21,10.27-8.1v-.1c0-5.23-4.05-8-10-8h-9.33v16.16Z"/><path class="cls-1" d="M262,147.19v-.09c0-5,4.29-7.82,10.51-7.82a28.63,28.63,0,0,1,8,1v-1c0-4.85-3-7.35-7.92-7.35a16.09,16.09,0,0,0-7.53,1.93l-.85-2a19.38,19.38,0,0,1,8.53-2.07c3.25,0,5.84.9,7.58,2.64a9.12,9.12,0,0,1,2.45,6.79v15H280.5v-4a10.93,10.93,0,0,1-9.19,4.57c-4.47,0-9.28-2.54-9.28-7.54m18.52-2v-2.73a31.75,31.75,0,0,0-8.15-1.09c-5.09,0-7.92,2.26-7.92,5.61v.09c0,3.49,3.3,5.52,7,5.52,4.89,0,9.09-3,9.09-7.4"/><path class="cls-1" d="M307,130.14h2.54L299.14,155c-2.12,5.05-4.57,6.84-8,6.84a10.79,10.79,0,0,1-4.76-1l.8-2a8.32,8.32,0,0,0,4.1.9c2.5,0,4.15-1.46,5.94-5.65l-11.54-23.89h2.68l10,21.48Z"/><path class="cls-1" d="M369.67,110.2l.76-.83a85.26,85.26,0,0,0-57.79-22.56H134.33l.06,1.18a108.31,108.31,0,0,0,2.72,19h0c.34,1.33.65,2.71,1.06,4.1l1.07-.32-1.08.3c.15.55.3,1.1.47,1.65h0A108.46,108.46,0,0,0,242,188.51H396.7l.16-.92a84.67,84.67,0,0,0-26.43-78.22l-.76.83-.76.83a82.34,82.34,0,0,1,25.74,76.16l1.11.2v-1.13H242A106.2,106.2,0,0,1,140.77,112l-1.07.34,1.08-.32c-.16-.53-.3-1.07-.45-1.61h0c-.38-1.28-.68-2.63-1-4l-1.09.28,1.1-.26a105,105,0,0,1-2.66-18.56l-1.12.06v1.12H312.64a83,83,0,0,1,56.27,22Z"/><path class="cls-1" d="M234.15,22.27A84.14,84.14,0,0,0,177.12,0H0A108.17,108.17,0,0,0,2.68,18.76c.35,1.35.65,2.72,1,4,.16.55.31,1.09.47,1.63a107.33,107.33,0,0,0,102.34,75H260.24a83.56,83.56,0,0,0-26.09-77.19"/><path class="cls-2" d="M182.34,48.92H149.25v17.2h10.49V56.43h4.43l6,9.69H182l-7-10.5a12.27,12.27,0,0,0,7.3-6.7"/><path class="cls-2" d="M179,36.38a11.44,11.44,0,0,0-7.79-3H148.59A14.48,14.48,0,0,0,149,35.9c.05.19.09.37.15.55l.06.23a14.66,14.66,0,0,0,14,10.25h19.37A11.43,11.43,0,0,0,179,36.38"/><path class="cls-2" d="M113.91,37.65l-4.34,15.06h-.75l-4.35-15.06a6,6,0,0,0-5.73-4.31H88.33V66.13H98.76V46.75h.75l5.95,19.38h7.46l6-19.38h.75V66.13h10.43V33.34H119.64a6,6,0,0,0-5.73,4.31"/><rect class="cls-2" x="134.53" y="33.34" width="10.43" height="32.79"/></g></g></svg>