<svg xmlns="http://www.w3.org/2000/svg" viewBox="0 0 295.66 108.06"><defs><style>.cls-1{fill:#ff8c00;}</style></defs><g id="Слой_2" data-name="Слой 2"><g id="Layer_1" data-name="Layer 1"><path class="cls-1" d="M196.49,22.79V73.32a1.37,1.37,0,0,1-1.37,1.37H184.8a1.37,1.37,0,0,1-1.38-1.37V22.79a1.37,1.37,0,0,1,1.38-1.37h10.32A1.37,1.37,0,0,1,196.49,22.79Zm80.43-1.37H265.37a1.36,1.36,0,0,0-1.31,1l-9.14,29.85-10-29.89a1.39,1.39,0,0,0-1.31-.93h-8.06a1.38,1.38,0,0,0-1.3.93l-10,29.89L215,22.39a1.37,1.37,0,0,0-1.31-1H202.17a1.37,1.37,0,0,0-1.31,1.79l17,50.56a1.37,1.37,0,0,0,1.3.93h9.17a1.38,1.38,0,0,0,1.3-.93l9.94-29.54,10,29.54a1.38,1.38,0,0,0,1.3.93H260a1.38,1.38,0,0,0,1.3-.93l17-50.56A1.33,1.33,0,0,0,278,22,1.35,1.35,0,0,0,276.92,21.42Zm17.37,0H284a1.37,1.37,0,0,0-1.38,1.37V73.32A1.37,1.37,0,0,0,284,74.69h10.32a1.37,1.37,0,0,0,1.37-1.37V22.79A1.37,1.37,0,0,0,294.29,21.42ZM177.45,73a1,1,0,0,1-.8,1.74H164a1.73,1.73,0,0,1-1.34-.63l-2.14-2.58a28,28,0,1,1,8.34-8.36ZM152.38,61.7,146.85,55a1.07,1.07,0,0,1,.82-1.76h11.59a16.42,16.42,0,0,0,.86-5.22c0-8.35-6.21-15.55-14.74-15.55s-14.74,7.2-14.74,15.55,6.22,15.44,14.74,15.44A14.28,14.28,0,0,0,152.38,61.7Zm-66.61,11c.32,2.11-.35,3-1,3s-1.64-.85-2.72-2.54-1.46-3.57-.93-4.53a1.5,1.5,0,0,1,2-.57C84.89,68.72,85.59,71.45,85.77,72.7Zm-9.86,4.59c2.14,1.81,2.79,4,1.66,5.48a3.48,3.48,0,0,1-2.87,1.29,5.08,5.08,0,0,1-3.27-1.19c-2-1.7-2.52-4.45-1.25-6a2.84,2.84,0,0,1,2.27-.94A5.48,5.48,0,0,1,75.91,77.29ZM72.33,94.74c9.21,0,19.2,3.16,30.26,13,1.11,1,2.59-.24,1.62-1.46C93.34,92.52,83.29,89.91,73.26,87.7,61,85,54.69,78.09,50.29,70.52,49.42,69,49,69.28,49,71.21a42.61,42.61,0,0,0,.6,8.59h0c-.5,0-1,0-1.5,0A31.77,31.77,0,1,1,79.82,48.05a32.27,32.27,0,0,1-.2,3.7,47.32,47.32,0,0,0-10.09-.19c-1.2.1-1,.66-.12.83,10.5,1.9,17.71,8.4,19.36,20.21a.29.29,0,0,0,.53.12A48.06,48.06,0,1,0,48.05,96.11C55.1,96.11,62.08,94.74,72.33,94.74Z"/></g></g></svg>