<svg viewBox="0 0 512.21 477.67" version="1.1" xmlns="http://www.w3.org/2000/svg" xmlns:xlink="http://www.w3.org/1999/xlink">
    <path fill="currentColor"
          d="M373.44,0A136.51,136.51,0,0,0,256.11,70.4,136.54,136.54,0,0,0,138.77,0,145.06,145.06,0,0,0,.11,150.4C.11,294.93,233.83,461.87,243.77,469l12.34,8.72L268.44,469c9.94-7,243.67-174,243.67-318.55A145.07,145.07,0,0,0,373.44,0ZM256.11,425.15C186.71,373.31,42.77,246,42.77,150.4a102.4,102.4,0,0,1,96-107.73,102.39,102.39,0,0,1,96,107.73h42.67a102.39,102.39,0,0,1,96-107.73,102.4,102.4,0,0,1,96,107.73C469.44,246,325.5,373.31,256.11,425.15Z"/>
</svg>