<svg version="1.1" viewBox="0 0 512.43 512.43" xmlns="http://www.w3.org/2000/svg" xmlns:xlink="http://www.w3.org/1999/xlink">
    <path fill-rule="evenodd" fill="currentColor"
          d="M9.5,9.5c-1.25,1.29-1.34,2.9-1.45,6.43,3.28,0,5.56,0,6.73-1.15s1.15-3.55,1.15-6.73C12.4,8.16,10.79,8.25,9.5,9.5ZM0,8.05c0,3.18,0,5.56,1.15,6.73s3.44,1.15,6.73,1.15c-.11-3.53-.2-5.14-1.45-6.43S3.53,8.16,0,8.05ZM7.88,0C4.59,0,2.32,0,1.15,1.15S0,4.7,0,7.88c3.53-.11,5.14-.2,6.43-1.45S7.77,3.53,7.88,0ZM9.5,6.43C8.25,5.14,8.16,3.53,8.05,0c3.28,0,5.56,0,6.73,1.15s1.15,3.55,1.15,6.73C12.4,7.77,10.79,7.68,9.5,6.43Z"/>
</svg>