<svg version="1.1" viewBox="0 0 107 29" xmlns="http://www.w3.org/2000/svg" xmlns:xlink="http://www.w3.org/1999/xlink">
    <path fill="#fff" fill-rule="evenodd"
          d="M37,0V18.88a31.69,31.69,0,0,1-.22,4.58,6.15,6.15,0,0,1-1.25,2.71,6.49,6.49,0,0,1-2.74,2.11,10.31,10.31,0,0,1-4,.72,11.25,11.25,0,0,1-4.52-.85,6.89,6.89,0,0,1-2.93-2.22,6.13,6.13,0,0,1-1.14-2.88Q20,21.53,20,16.68V0h7.43V21.22a8.79,8.79,0,0,0,.2,2.4.8.8,0,0,0,.82.52.86.86,0,0,0,.91-.57,10.44,10.44,0,0,0,.21-2.72V0ZM69.32,11.13a4.3,4.3,0,0,1-.38,2.36c-.25.28-.91.43-2,.47V5.45A2.91,2.91,0,0,1,68.9,6a4,4,0,0,1,.42,2.31v2.84Zm0,10.39a4,4,0,0,1-.42,2.31,2.85,2.85,0,0,1-1.94.53V15.85a3.18,3.18,0,0,1,2,.47,4.36,4.36,0,0,1,.38,2.37ZM76.1,13.7A7.76,7.76,0,0,0,77,9.5V6.81a11,11,0,0,0-.65-4.35A3.53,3.53,0,0,0,74.28.52,20.49,20.49,0,0,0,68.45,0H60V29h8.45a20.54,20.54,0,0,0,5.83-.52,3.54,3.54,0,0,0,2.07-1.93A11.11,11.11,0,0,0,77,22.19V19.5a7.76,7.76,0,0,0-.9-4.2,3.47,3.47,0,0,0-.78-.8A3.47,3.47,0,0,0,76.1,13.7ZM49.49,11.13a4.3,4.3,0,0,1-.38,2.36c-.25.28-.91.43-2,.47V5.45A2.91,2.91,0,0,1,49.07,6a4,4,0,0,1,.42,2.31v2.84Zm0,10.39a4,4,0,0,1-.42,2.31,2.85,2.85,0,0,1-1.94.53V15.85a3.18,3.18,0,0,1,2,.47,4.36,4.36,0,0,1,.38,2.37v2.83ZM56.1,13.7A7.76,7.76,0,0,0,57,9.5V6.81a11,11,0,0,0-.65-4.35A3.53,3.53,0,0,0,54.28.52,20.54,20.54,0,0,0,48.45,0H40V29h8.45a20.49,20.49,0,0,0,5.83-.52,3.54,3.54,0,0,0,2.07-1.93A11.11,11.11,0,0,0,57,22.19V19.5a7.76,7.76,0,0,0-.9-4.2,3.47,3.47,0,0,0-.78-.8A3.47,3.47,0,0,0,56.1,13.7ZM9.36,11.13A4.3,4.3,0,0,1,9,13.49c-.25.28-.91.43-2,.47V5.45A2.91,2.91,0,0,1,8.94,6a4,4,0,0,1,.42,2.31Zm0,10.39a4,4,0,0,1-.42,2.31A2.85,2.85,0,0,1,7,24.36V15.85a3.18,3.18,0,0,1,2,.47,4.36,4.36,0,0,1,.38,2.37v2.83Zm6.73-7.82A7.66,7.66,0,0,0,17,9.5V6.81a11,11,0,0,0-.65-4.35A3.58,3.58,0,0,0,14.27.52,20.74,20.74,0,0,0,8.41,0H0V29H8.41a20.61,20.61,0,0,0,5.85-.52,3.58,3.58,0,0,0,2.09-1.93A11.11,11.11,0,0,0,17,22.19V19.5a7.66,7.66,0,0,0-.91-4.2,3.28,3.28,0,0,0-.78-.8A3.28,3.28,0,0,0,16.09,13.7ZM94,0h13V6.05h-5.92v5.69H107v5.52h-5.92V23H107v6H94ZM87,23h5v6H80V0h7Z"/>
</svg>