<svg xmlns="http://www.w3.org/2000/svg" viewBox="0 0 1413.83 300"><defs><style>.cls-1{fill:#8b3ffd;}</style></defs><g id="Слой_2" data-name="Слой 2"><g id="Layer_1" data-name="Layer 1"><path d="M1252.84,150.92c0-39.25-29.7-71-71.65-71-41.12,0-70.4,30.53-70.4,72.48,0,42.16,30.11,72.9,73.31,72.9,27.41,0,50.46-12.26,64.79-37.18l-29.07-13.5c-6.85,12.46-21.81,20.56-35.72,20.56-17.65,0-38-13.29-39.25-31.77h107A77.88,77.88,0,0,0,1252.84,150.92Zm-107.37-12c2.5-18.69,15.37-30.94,35.93-30.94,20.35,0,32.81,12,34.47,30.94Z"/><path d="M852.51,79.89c-42.16,0-72.06,30.33-72.06,73.11,0,42.36,29.9,72.27,72.48,72.27,42.78,0,72.68-29.91,72.68-71.65C925.61,110.63,894.88,79.89,852.51,79.89Zm.42,113.6c-21.19,0-34.27-15.78-34.27-40.29,0-24.92,13.29-41.95,34.27-41.95,21.18,0,34.47,16.82,34.47,41.95C887.4,177.92,874.32,193.49,852.93,193.49Z"/><path d="M702.39,79.93c-17.27,0-30.28,5.9-43.29,20.53h-4.27c-8.74-13.21-23-20.53-39-20.53a50.44,50.44,0,0,0-41,20.53h-4.27l-.21-.2V82.78H534.5V222.22h38.62V150.46c0-23.17,9.76-36.79,26.63-36.79,15.65,0,25.81,11.59,25.81,29.27v79.28h38.82V150.46c0-23,9.76-36.79,26.84-36.79,15.44,0,25.4,11.59,25.4,29.48v79.07h38.83V138.47C755.45,102.09,735.93,79.93,702.39,79.93Z"/><path d="M1338.76,173.86H1336c0-2.48-16.84-46.64-27.88-74l-6.9-17.11h-38.91l55.2,139.93L1295.7,276h38.64l79.49-193.2h-38.91l-6.35,14.63L1347,150.68C1341,165.58,1338.48,172.48,1338.76,173.86Z"/><path d="M1032.74,79.93c-17.28,0-32.12,7.52-42.08,20.94h-4.07l-.4-.2V82.78H950.41V222.22H989V150.87c0-22.76,11-37,29.07-37,16.87,0,29.27,12.6,29.27,32.52v75.82H1086V138.07C1086,103.92,1063.63,79.93,1032.74,79.93Z"/><path class="cls-1" d="M272.21,0C188.77,0,121.74,67.5,121.74,150c0,83.18,67.71,150,150.47,150s150.47-67.5,150.47-150S355,0,272.21,0Zm0,205.91c-30.78,0-56.08-25.23-56.08-55.91s25.3-55.91,56.08-55.91S328.3,119.32,328.3,150C327.61,180.68,303,205.91,272.21,205.91Z"/><path class="cls-1" d="M121.74,43.58V261.76H68.4L0,43.58Z"/></g></g></svg>